<svg xmlns="http://www.w3.org/2000/svg" width="880" height="880"><path fill="#107653" d="M.14 670.75 0 880V0h880L668.25.12C487.67.23 458.86.44 472.5 1.53c56.16 4.5 102.24 16.36 151.5 38.99C733.21 90.68 817.83 184.64 856.79 299l.6 1.74c4.68 13.72 5.91 17.35 4.62 19.24-.52.76-1.44 1.25-2.71 1.99-10.82 6.34-29.96 20.9-42.68 32.46-8.22 7.47-31.28 32.88-38.15 42.03-41.94 55.89-52.16 67.21-78.55 87.01-26.74 20.07-65.08 35.84-103.09 42.43-20.22 3.5-31.9 4.41-56.83 4.42-24.28.01-31.92-.65-61.89-5.37-15.52-2.44-43.87-9.42-71.11-17.51-54.1-16.06-73.04-19.94-103-21.12-32.78-1.3-65.53 5.89-94.5 20.73-14.55 7.45-21.65 11.96-35.5 22.54-10.93 8.35-30.7 28.19-37.29 37.41-26.63 37.3-39.58 66.96-53.16 121.8-.72 2.91-1.53 5.52-1.81 5.79-.27.28-3.44-3.91-7.04-9.29C31.86 621.09 7.34 550.02 1.12 472c-.02-.21-.04-.31-.05-.31-.47 0-.85 81.96-.93 199.06M449 482.91c51.26 1.86 115.57.18 171.78-4.48l7.29-.61 3.79-5.16c2.09-2.84 4.98-7.19 6.42-9.66 1.44-2.48 6.47-9.31 11.17-15.18S658 436.63 658 436c0-.72-1.04-.96-2.75-.65-1.51.28-4.46.8-6.55 1.14l-3.8.62.3-5.8.3-5.79 10.5-1.23c41.75-4.89 45.95-5.56 46.55-7.44.8-2.52-.23-3.85-2.98-3.85-3.82 0-7.44-4.59-57.58-73-8.86-12.09-42.04-60.65-47.69-69.78-2.09-3.39-7.38-11.68-11.75-18.44-15.48-23.91-20.3-31.48-31.79-49.97l-11.62-18.69-.23-17.48c-.3-22.31-.49-23.64-3.42-23.64-1.25 0-2.55.71-2.88 1.58-.34.87-.61 9.02-.61 18.12v16.53l-2.75-1.82c-1.51-.99-5.67-3.46-9.25-5.46a443 443 0 0 1-12.45-7.31c-3.97-2.44-6.28-3.31-6.95-2.64-.55.55-5.86 1-11.81 1h-10.81l.14-10.57c.08-6.12-.29-11-.89-11.6-1.86-1.86-5.23.06-5.24 2.99-.01 2.41-.84 3.03-8.25 6.12-8.18 3.42-23.13 10.74-31.72 15.55-2.47 1.38-5.06 2.51-5.75 2.51-.7 0-1.27.5-1.27 1.12 0 1.08 1.6.89 5.25-.61 2.36-.97 2.32 2.49-.18 15.36-2.08 10.74-4.02 14.59-11.23 22.23-3.39 3.6-5.27 4.75-8.59 5.27-2.95.45-4.25 1.14-4.25 2.25 0 1.24.79 1.51 3.5 1.19 1.92-.22 3.5-.34 3.5-.27 0 .08-1.33 1.68-2.95 3.55-2.58 2.99-17.99 22.55-60.89 77.3-12 15.31-32.16 40.9-32.62 41.39-.14.15-2.8-3.11-5.92-7.25-11.57-15.38-31.15-32.95-49.53-44.47-31.21-19.56-62.9-29.29-100.09-30.72-46.35-1.79-86.18 9.95-126 37.12-.55.37-1.08.73-1.57 1.07-6.03 4.12-7.9 5.39-8.25 5.06-.16-.15-.01-.63.21-1.32.04-.12.08-.26.12-.39 5.89-19.32 25.95-60.5 42.8-87.88 7.72-12.53 27.07-39.93 29.67-42 .34-.27 3.18-3.72 6.3-7.66 33.09-41.81 83.5-82.41 134.72-108.5C296.33 19.63 349.3 5.37 418 .66c.03 0 .05-.01.05-.01 0-.17-92.13-.38-206.8-.48L0 0l.17 210.75c.1 114.4.31 206.3.48 206.3.01 0 .01-.02.01-.05.17-2.48.82-10.24 1.45-17.26l1.14-12.76 6.63-5.8c55.21-48.38 102.56-68 159.05-65.92 39.25 1.45 77.94 16.63 109.94 43.13 4.06 3.36 8.27 6.82 9.36 7.7 1.93 1.54 1.71 1.92-7.74 13.25-5.36 6.41-10.15 11.66-10.65 11.66s-3.13-1.12-5.84-2.5c-5.74-2.91-7.55-3.11-8.39-.92-1.1 2.85-.69 3.25 7.14 7.21 7.55 3.81 57.77 30.66 65.75 35.15 13.53 7.62 14.05 8.04 20 16.18 18.94 25.91 23.08 30.57 27.81 31.31 12.62 1.97 46.71 4.54 72.69 5.48m173.5-60.93c-6.6.59-15.6 1.34-20 1.66l-8 .6-1.39-4.37c-3.11-9.73-11.93-41.38-11.63-41.69.71-.7 40.91 7.1 56.02 10.88 32.66 8.16 46.7 13.51 53.42 20.36l4.29 4.37-2.85.59c-3.5.72-53.33 6.14-69.86 7.6m-188.21-65.32-36.58.67c-10.34.18-19 0-19.25-.4-1.02-1.65 16.62-13.87 26.06-18.04 13.08-5.79 40.35-9.65 59.4-8.42 24.86 1.61 39.66 4.98 55.71 12.68 5.66 2.72 12.37 8.53 12.37 10.72 0 .97-31.32 2.55-39 1.97l-4.5-.34-1.15-9-1.15-9 .53 9.25c.37 6.52.19 9.25-.6 9.25-.62 0-1.16-.11-1.21-.25-.04-.14-.7-3.85-1.46-8.25l-1.39-8 .43 8.25c.43 8.12.4 8.25-1.92 8.25-2.28 0-2.36-.28-2.75-10.06-.3-7.41-.79-10.3-1.87-10.97-.88-.54-1.59-.54-1.77.01-.18.5-.88.69-1.58.43-1.79-.69-3.42 3.51-2.86 7.34.37 2.52.12 3.25-1.14 3.25-1.9 0-2.08-1.13-.43-2.78.65-.65.93-1.44.62-1.75-.3-.31-1.73 1.37-3.15 3.73-3.7 6.12-8.13 11.14-9.44 10.69-.63-.22.44-2.16 2.41-4.39 3.94-4.46 10.69-14.52 10.13-15.08-.2-.2-2.21 2.43-4.48 5.86-2.26 3.42-5.93 7.98-8.15 10.13l-4.03 3.91ZM471 411.78V450l-7.75-.11c-7.81-.12-27.69-2.44-45.25-5.28-5.23-.85-10.41-1.68-11.53-1.85-1.11-.17-2.99-1.28-4.18-2.47-1.24-1.24-4.11-2.44-6.8-2.84-2.99-.45-4.83-1.28-5.14-2.33-.27-.89-.91-2.39-1.41-3.33-.75-1.41.17-2.31 5.33-5.18 8.92-4.98 22.25-10.14 31.37-12.16 5.27-1.16 14.04-1.89 26.61-2.2Zm-82 24.91c0 1.27-.34 2.24-.75 2.15s-2.25-.34-4.08-.57c-2.53-.31-3.19-.78-2.73-1.98.49-1.28.33-1.35-.85-.36-1.19.98-1.73.69-2.98-1.61-1.48-2.73-1.53-2.75-1.57-.46-.03 1.83-.43 2.2-1.79 1.67-.96-.37-5.8-1.98-10.75-3.58-4.95-1.59-10.03-3.62-11.28-4.5-3.43-2.41-19.32-35.68-17.78-37.22 1.58-1.58 27.49 11.72 34.77 17.86l4.72 3.97-.49-11.78c-.28-6.48-.7-14-.94-16.72-.25-2.72-.17-8.91.17-13.75l.63-8.81h2.77c3.03 0 3.16.26 6.57 13 2.59 9.67 2.58 40.67-.01 50.8-1.03 4.01-1.57 7.59-1.2 7.96.36.37 1.62.07 2.79-.67 1.85-1.15 2.31-1.09 3.46.48.72 1 1.32 2.85 1.32 4.12m187-90.79c.57 7.91.87 14.57.65 14.78-.21.22-1.15-2.66-2.08-6.39-2.4-9.62-11.01-39.78-15.08-52.79-1.88-6.05-6.86-22.02-11.06-35.5s-8-24.96-8.45-25.51c-.96-1.17-1.8-54.5-.85-53.91.35.21.86 1.41 1.13 2.66.28 1.24 1.88 6.08 3.55 10.76 14.78 41.26 29.44 107.67 32.19 145.9m-53 103.22c-4.12.34-15.44.68-25.14.75-15.49.11-17.72-.07-18.27-1.51-.35-.9-.92-9.22-1.27-18.5-.06-1.69-.13-3.23-.19-4.61-.32-7.52-.46-10.69.96-11.73 1.05-.76 2.92-.38 6.18.29.82.17 1.73.36 2.73.55l6.5 1.23 1.1 14.46c1.16 15.13 1.03 16.95-1.15 16.95-.73 0-1.62.47-1.97 1.04-.43.68.33.81 2.19.36 1.55-.38 2.96-.79 3.13-.92.16-.14-.22-7.07-.86-15.42-.64-8.34-.9-15.43-.59-15.75.32-.31 5.25 1.72 10.97 4.51 8.91 4.35 11.35 6.11 17.09 12.3 6.24 6.74 6.67 7.5 6.39 11.3l-.3 4.08ZM462.5 278c-.77 1.24-8.95 1.16-13-.12-1.81-.58-12.64-.69-27.27-.29-27.89.77-28.01.72-16.38-6.97 18.96-12.53 35.21-17.55 56.88-17.6l9.23-.02-.57 4.25c-.32 2.34-.65 7.58-.73 11.65-.13 6.15-.45 7.45-1.87 7.66-2.17.32-4.2-2.07-3.2-3.77.41-.71-.15-.5-1.25.46s-3.54 1.76-5.42 1.77c-2.58.01-3.05.25-1.92.98.83.53 2.54.98 3.81.98 1.28.01 2.03.46 1.69 1.02M345.95 425.93c3.05 4.28 1.36 3.93-10.55-2.22-5.55-2.87-21.87-10.99-36.25-18.06S273 392.47 273 392.07s1.01-1.66 2.25-2.81c2.29-2.12 9.11-3.46 24.25-4.77l7-.6 13.07 13.3c14.56 14.83 23.1 24.13 26.38 28.74m31.79-71.18c-1.72 1.79-3.5 3.25-3.94 3.25-2.16 0 5.82-50.45 10.2-64.5.51-1.65 1.51-5.01 2.22-7.46 1.2-4.17 1.53-4.48 5.12-4.83 6.15-.58 7.66 1.53 7.66 10.7 0 13.17-4.06 28.42-12.62 47.38-3.03 6.72-6.92 13.67-8.64 15.46m195.7 187.2c-15.88 1.19-31.15 1.15-49.44-.12-13.88-.97-35.41-3.85-37.25-4.99-2.51-1.55.21-1.79 7.83-.7 30.64 4.4 66.57 3.53 105.92-2.58 3.93-.61 17.07-3.78 21-5.06 2.2-.72 6.7-2.08 10-3.03 13.91-3.98 33.65-11.8 34.34-13.6.18-.49.73-.64 1.21-.34.49.3 5.68-2.17 11.54-5.49 5.87-3.32 11.03-6.04 11.48-6.04s1.4-.83 2.12-1.84 2.43-2.43 3.81-3.16c1.38-.72 3.18-2.03 4.02-2.91 1.74-1.83 8.07-5.34 8.63-4.78.88.89-4.75 5.75-5.9 5.09-.69-.4-.93-.36-.53.08.77.85-7.01 7.49-8.8 7.51-.6.01-2.33 1.4-3.84 3.1-1.51 1.69-4.21 3.69-5.99 4.44-1.79.74-3.83 2.06-4.54 2.91-.71.86-1.69 1.56-2.18 1.56s-6.95 2.91-14.36 6.47c-7.4 3.57-14.71 6.78-16.24 7.14-1.52.36-3.89 1.24-5.27 1.95-2.38 1.24-22.45 7.1-32 9.36-9.6 2.26-22.08 4.03-35.56 5.03m-41.8-335.25c-.14.14-3.45.55-7.34.91l-7.09.66-3.55-4.89c-5.36-7.36-8.16-16.99-8.16-28.04 0-9.76.58-11.45 3.3-9.62.93.63 5.3 3.28 9.7 5.89 4.4 2.62 9.29 5.81 10.86 7.1l2.86 2.35-.16 12.69c-.09 6.98-.28 12.8-.42 12.95m-334.7 319.89c-5.26 2.98-10.14 5.41-10.83 5.41-1.78 0 2.9-5.73 5.39-6.59 1.1-.39 4.24-2.21 6.99-4.05 2.74-1.85 5.31-3.36 5.71-3.36s7.12-3.15 14.94-7 14.74-7 15.38-7 3.83-.94 7.07-2.09c3.25-1.14 8.39-2.5 11.41-3 3.02-.51 7.98-1.38 11-1.95 8.77-1.65 33.44-2.97 46.5-2.48 10.46.39 16.17 1.21 36 5.13 5.74 1.13 5.8 1.14 8 1.31 1.89.13 1.9.2.19 1.2-1.83 1.06-4.34.94-23.19-1.05-24.88-2.62-49.37-2.12-65.5 1.34-3.58.76-9.88 2.08-14 2.93-8.51 1.74-19.97 4.86-21.57 5.87-.58.38-3.73 1.66-7 2.86-9.19 3.38-16.09 6.64-26.49 12.52m253.28-316.82c-11.4.2-23.73.71-27.41 1.11l-6.68.74 4.1-4.89c2.25-2.7 5.06-5.53 6.24-6.3 5.98-3.92 29.79-9.43 40.76-9.43 4.09 0 4.88.28 4.39 1.55-.33.86-.26 1.34.16 1.09.76-.47.36 14.48-.42 15.31-.23.24-9.74.61-21.14.82M509.65 276c-12.37 0-23.13.25-23.93.55-1.72.66-2.72-5.13-2.72-15.8v-6.98l4.61.69c20.02 3.01 43.32 13.19 44.21 19.33l.32 2.21Zm-117.63 3c-.47 0-1.57.27-2.44.61-.87.33-1.57.22-1.55-.25.11-3.6 18.29-50.28 23.21-59.61 2.98-5.64 4.76-7.23 4.76-4.25 0 .82.4 1.5.89 1.5 4.64 0-1.5 26.27-10.16 43.5-4.45 8.86-12.11 18.5-14.71 18.5m-326.46 6.53c-1.07.81-2.82 1.47-3.89 1.47-1.76 0-1.72-.17.45-1.82 4.39-3.34 9.35-5.96 12.62-6.65 1.78-.38 3.49-1.1 3.81-1.61.31-.5 1.42-.92 2.46-.92 1.05 0 3.47-1.07 5.4-2.37 3.15-2.14 13.13-5.07 31.59-9.26 10.44-2.38 48.05-2.95 60.5-.92 5.5.89 12.93 2.07 16.5 2.61 3.57.55 9.2 1.75 12.5 2.67 5.08 1.42 5.62 1.77 3.5 2.3-1.38.34-3.4.29-4.5-.12s-6.73-1.27-12.5-1.92-11.64-1.53-13.04-1.96c-3.64-1.12-41.03-.5-49.96.81-4.12.61-9.75 1.36-12.5 1.66-9.82 1.07-31.15 6.81-39.52 10.62-4.68 2.13-9.18 3.89-10 3.91-.81.02-2.35.69-3.42 1.5M575.89 426.5c-8.46.73-20.45 1.65-26.64 2.04l-11.25.72v-13.97l4.75.32c26.62 1.78 45.13 4.1 48.71 6.11.89.5 1.14 1.31.63 2.13-.55.89-5.75 1.74-16.2 2.65m-68.08-218.38c-4.02.34-12.37.68-18.56.75L478 209v-6.94c0-4.08-.47-7.23-1.13-7.64-2.83-1.75 2.32-2.16 10.16-.8 10 1.73 17.23 4.83 23.51 10.07l4.57 3.81Zm-51.06-44.69c-8.39.37-16.71.93-18.5 1.24-1.79.3-3.25.28-3.25-.05 0-.89 18.4-9.96 28.35-13.97l8.65-3.49v15.58Zm75.03 61.32c.15 7.84.15 20.66 0 28.5l-.28 14.25-2.24-5.16c-2.74-6.31-5.08-15.07-5.92-22.12-.72-6.08 1.45-15.5 5.56-24.22l2.6-5.5ZM531.35 400c-.33 19.52-.73 35.65-.9 35.84-1.52 1.73-5.44-23.93-5.44-35.68-.01-9.66 2.89-26.78 5.5-32.52 1.27-2.77 1.36 1.07.84 32.36m.42-100.25c.16 8.94.16 23.56 0 32.5l-.27 16.25-2.16-5.56c-5.79-14.85-5.8-34.06-.04-52.44l2.2-7Zm289.77 62.32c.24.39-.46.94-1.55 1.22-1.1.29-1.99.07-1.99-.49 0-1.56 5.26-5.33 6.97-5.01 1.32.25 1.33.16.07-.69-1.22-.82-1-1.41 1.3-3.54 1.52-1.41 2.41-2.56 1.98-2.56-.44 0 .78-.86 2.7-1.91 1.91-1.05 3.37-2.39 3.24-2.97-.13-.57.33-.83 1.02-.56 1.42.54 4.06-1.26 10.11-6.87 2.39-2.21 3.27-3.5 2.11-3.07-1.31.49-.92-.18 1.14-1.94 3.3-2.81 4.98-3.49 3.76-1.53-.44.73-.27.89.46.44.65-.4.93-1.13.62-1.62-.74-1.2 5.29-4.23 6.7-3.36.65.4.85.25.49-.34-.36-.57-.04-1.55.71-2.17 1.03-.85 1.67-.74 2.66.45 1.87 2.25.15 6.42-3.68 8.92-7.17 4.68-12.85 8.15-16.41 10.04-2.09 1.1-6.65 4.5-10.13 7.56-3.47 3.06-7.76 6.4-9.52 7.43-1.75 1.03-3 2.18-2.76 2.57m-263.18 83.92c-.47.44-5.02 1.13-10.11 1.52l-9.25.7v-12.94l9.75-.51c6.66-.36 10-.16 10.54.61.98 1.38.26 9.49-.93 10.62m23-1.63c-2.55.35-6.83.64-9.5.64H567v-5.74c0-2.4 0-3.82.69-4.71 1.03-1.32 3.62-1.44 10.06-1.82l6.26-.36.99 3.57c1.89 6.81 1.5 7.72-3.64 8.42m43.47-5.01c-5.67 1.52-6.53.98-7.25-4.5-.38-2.83-.33-5.49.12-5.91.97-.94 18.31-2.78 18.71-1.99.15.3.01 2.99-.32 5.97-.66 6.03-2.45 7.58-4.24 3.66-1.46-3.21-2.64-3.28-3.8-.22-.49 1.3-1.94 2.65-3.22 2.99m-19.95 3.03c-1.72.34-5.05.62-7.39.62-4.86 0-5.88-1.71-4.85-8.14.52-3.25.96-3.7 4.22-4.24 2-.33 5.33-.6 7.39-.61L608 430v5.88c0 5.77-.05 5.88-3.12 6.5M479.92 275.25c-2.11 3.62-2.92 1.52-2.91-7.5.02-11.16.6-13.75 3.11-13.75 1.68 0 1.88.83 1.89 7.75.01 4.26.29 9.44.63 11.5.41 2.49.24 3.75-.51 3.75-.62 0-1.14-.79-1.16-1.75-.03-1.67-.08-1.67-1.05 0M331 394.43c0 1.98-.96 1.98-3.78.01-1.49-1.04-2.22-1.17-2.22-.37 0 .89-.35.88-1.46-.03-.8-.67-1.82-.99-2.26-.71-.44.27-1.92-.17-3.29-.99-1.37-.81-1.72-1.24-.77-.95.94.29 1.92.19 2.18-.22.25-.41-.7-.84-2.12-.96-2.97-.24-5.51-2.03-4.72-3.31.3-.48-.11-.63-.91-.32-.79.31-1.69.17-1.98-.3s.52-.94 1.79-1.05c1.57-.13 2.49.45 2.84 1.79.28 1.09 1.12 1.97 1.86 1.96 1.11-.01 1.11-.16-.02-.87-2.44-1.55.43-2.04 3.28-.57 1.56.81 3.95 1.19 5.43.87 2.06-.44 2.31-.33 1.15.49-1.29.92-1.24 1.07.32 1.08 2.24.02 4.68 2.34 4.68 4.45m139.63-40.68c.58 2.16.34 2.25-5.59 2.25h-6.2l3.58-4.18c1.97-2.3 3.58-4.51 3.58-4.91s.9-.49 2-.2c1.2.32 2.01 1.37 2.01 2.66.01 1.17.29 3.14.62 4.38m9.76 92.67c-.33.87-.15 1.58.4 1.58s1.27-.71 1.6-1.58c.76-1.98.58-14.51-.36-24.42-.61-6.43-.73-5.33-.87 7.67-.09 8.34-.43 15.88-.77 16.75m7.89-291.25c11.87 6.02 14.88 6.22 3.72.25-4.67-2.5-9.51-5.21-10.75-6.01-1.72-1.11-2.24-1.16-2.22-.18.02.7 4.18 3.37 9.25 5.94M373.45 507.13c.58.53.38.82-.5.73-6.83-.64-15.74-3.76-13.93-4.87 1.24-.77 12.64 2.5 14.43 4.14m21 5.04c1 .88-3.58.95-6.88.11-2.42-.62-5.26-3.28-3.51-3.28 1.94 0 9.35 2.26 10.39 3.17m7.55-71.12c0 1.13-1.38 1.09-5.75-.17-2.82-.81-4.63-2.89-2.5-2.87 2.26.01 8.25 2.22 8.25 3.04M91 676c0 2.2-.21 4-.46 4-1.14 0-2.38-3.88-1.87-5.84.93-3.55 2.33-2.45 2.33 1.84m376.55-403.75c-.79 1.51-1.04 2.75-.57 2.75 1.09 0 3.43-6.92 2.62-7.73-.33-.33-.6.03-.61.81 0 .78-.65 2.66-1.44 4.17m-18.28 4.06c-.97.25-.42.47 1.23.5 1.65.02 2.45-.19 1.77-.47-.68-.27-2.03-.29-3-.03"/><path fill="#ba1920" d="M880 880H0l208.75-.17c113.47-.09 204.79-.31 204.79-.49 0 0-.01 0-.04-.01-37.16-3.06-58.68-6.59-87.5-14.35-55.36-14.9-106.19-39.84-152.39-74.78-12.63-9.56-21.11-16.79-36.31-30.95-10.61-9.89-24.72-24.81-21.78-23.03.91.55 7.04-13.6 12.45-28.72.99-2.75 3.48-9.72 5.55-15.5 17.53-49.09 55.09-91.93 100.98-115.16 16.48-8.35 40.2-16.84 47.05-16.84 1.76 0 4.8-.67 6.75-1.48 3.86-1.61 16.33-3.32 29.7-4.07 4.67-.27 9.53-.71 10.78-.99 3.6-.81 31.45 1.42 45.22 3.62 28.79 4.59 49.23 11.05 101 31.93 50.33 20.29 82.09 27.07 126.93 27.09 42.28.01 80.58-9.19 114.26-27.48 12.78-6.93 18.16-9.97 18.81-10.62.28-.28 3.42-2.49 7-4.92 15.27-10.37 31.54-25.31 44.74-41.08 6.15-7.34 18.98-25.3 31.09-43.5 23.75-35.7 31.84-46.23 48.59-63.31 11.82-12.04 12.09-12.25 12.71-9.5 0 .01.01.02.01.02.34 0 .68-92.32.74-206.46L880 0Zm-402.41-1.52c-11.94 1.09 17.76 1.3 194.16 1.4L880 880l-.14-208.75c-.07-111.54-.48-199.26-.91-199.26-.01 0-.02.08-.03.23-8.93 108.05-52.76 203.6-127.9 278.82-73.58 73.65-168.55 117.92-273.43 127.44"/><path fill="#f0f2f1" d="M.14 670.75C.22 549.49.63 465.92 1.12 472c6.22 78.02 30.74 149.09 73.58 213.3 3.6 5.38 6.77 9.57 7.04 9.29.28-.27 1.09-2.88 1.81-5.79 13.58-54.84 26.53-84.5 53.16-121.8 6.59-9.22 26.36-29.06 37.29-37.41 13.85-10.58 20.95-15.09 35.5-22.54 28.97-14.84 61.72-22.03 94.5-20.73 29.96 1.18 48.9 5.06 103 21.12 27.24 8.09 55.59 15.07 71.11 17.51 29.97 4.72 37.61 5.38 61.89 5.37 24.93-.01 36.61-.92 56.83-4.42 38.01-6.59 76.35-22.36 103.09-42.43 26.39-19.8 36.61-31.12 78.55-87.01 6.87-9.15 29.93-34.56 38.15-42.03 12.72-11.56 31.86-26.12 42.68-32.46 4.57-2.68 4.64-1.99-2.51-22.97C817.83 184.64 733.21 90.68 624 40.52 574.74 17.89 528.66 6.03 472.5 1.53 458.86.44 487.67.23 668.25.12L880 0l-.12 209.25c-.06 115.09-.4 207.99-.75 206.44-.62-2.75-.89-2.54-12.71 9.5-16.75 17.08-24.84 27.61-48.59 63.31-12.11 18.2-24.94 36.16-31.09 43.5-13.2 15.77-29.47 30.71-44.74 41.08-3.58 2.43-6.72 4.64-7 4.92-.65.65-6.03 3.69-18.81 10.62-33.68 18.29-71.98 27.49-114.26 27.48-44.84-.02-76.6-6.8-126.93-27.09-51.77-20.88-72.21-27.34-101-31.93-13.77-2.2-41.62-4.43-45.22-3.62-1.25.28-6.11.72-10.78.99-13.37.75-25.84 2.46-29.7 4.07-1.95.81-4.99 1.48-6.75 1.48-6.85 0-30.57 8.49-47.05 16.84-45.89 23.23-83.45 66.07-100.98 115.16-2.07 5.78-4.56 12.75-5.55 15.5-5.41 15.12-11.54 29.27-12.45 28.72-2.94-1.78 11.17 13.14 21.78 23.03 15.2 14.16 23.68 21.39 36.31 30.95 46.2 34.94 97.03 59.88 152.39 74.78 28.82 7.76 50.34 11.29 87.5 14.35 2.2.19-89.94.41-204.75.5L0 880zM91 676c0-4.29-1.4-5.39-2.33-1.84-.51 1.96.73 5.84 1.87 5.84.25 0 .46-1.8.46-4m482.44-134.05c13.48-1 25.96-2.77 35.56-5.03 9.55-2.26 29.62-8.12 32-9.36 1.38-.71 3.75-1.59 5.27-1.95 1.53-.36 8.84-3.57 16.24-7.14 7.41-3.56 13.87-6.47 14.36-6.47s1.47-.7 2.18-1.56c.71-.85 2.75-2.17 4.54-2.91 1.78-.75 4.48-2.75 5.99-4.44 1.51-1.7 3.24-3.09 3.84-3.1 1.79-.02 9.57-6.66 8.8-7.51-.4-.44-.16-.48.53-.08 1.15.66 6.78-4.2 5.9-5.09-.56-.56-6.89 2.95-8.63 4.78-.84.88-2.64 2.19-4.02 2.91-1.38.73-3.09 2.15-3.81 3.16s-1.67 1.84-2.12 1.84-5.61 2.72-11.48 6.04c-5.86 3.32-11.05 5.79-11.54 5.49-.48-.3-1.03-.15-1.21.34-.69 1.8-20.43 9.62-34.34 13.6-3.3.95-7.8 2.31-10 3.03-3.93 1.28-17.07 4.45-21 5.06-39.35 6.11-75.28 6.98-105.92 2.58-7.62-1.09-10.34-.85-7.83.7 1.84 1.14 23.37 4.02 37.25 4.99 18.29 1.27 33.56 1.31 49.44.12m-376.5-15.36c10.4-5.88 17.3-9.14 26.49-12.52 3.27-1.2 6.42-2.48 7-2.86 1.6-1.01 13.06-4.13 21.57-5.87 4.12-.85 10.42-2.17 14-2.93 16.13-3.46 40.62-3.96 65.5-1.34 18.85 1.99 21.36 2.11 23.19 1.05 1.71-1 1.7-1.07-.19-1.2-2.2-.17-2.26-.18-8-1.31-19.83-3.92-25.54-4.74-36-5.13-13.06-.49-37.73.83-46.5 2.48-3.02.57-7.98 1.44-11 1.95-3.02.5-8.16 1.86-11.41 3-3.24 1.15-6.43 2.09-7.07 2.09s-7.56 3.15-15.38 7-14.54 7-14.94 7-2.97 1.51-5.71 3.36c-2.75 1.84-5.89 3.66-6.99 4.05-2.49.86-7.17 6.59-5.39 6.59.69 0 5.57-2.43 10.83-5.41m197.51-14.42c-1.04-.91-8.45-3.17-10.39-3.17-1.75 0 1.09 2.66 3.51 3.28 3.3.84 7.88.77 6.88-.11m-21-5.04c-1.79-1.64-13.19-4.91-14.43-4.14-1.81 1.11 7.1 4.23 13.93 4.87.88.09 1.08-.2.5-.73m448.09-145.06c-.24-.39 1.01-1.54 2.76-2.57 1.76-1.03 6.05-4.37 9.52-7.43 3.48-3.06 8.04-6.46 10.13-7.56 3.56-1.89 9.24-5.36 16.41-10.04 3.83-2.5 5.55-6.67 3.68-8.92-.99-1.19-1.63-1.3-2.66-.45-.75.62-1.07 1.6-.71 2.17.36.59.16.74-.49.34-1.41-.87-7.44 2.16-6.7 3.36.31.49.03 1.22-.62 1.62-.73.45-.9.29-.46-.44 1.22-1.96-.46-1.28-3.76 1.53-2.06 1.76-2.45 2.43-1.14 1.94 1.16-.43.28.86-2.11 3.07-6.05 5.61-8.69 7.41-10.11 6.87-.69-.27-1.15-.01-1.02.56.13.58-1.33 1.92-3.24 2.97-1.92 1.05-3.14 1.91-2.7 1.91.43 0-.46 1.15-1.98 2.56-2.3 2.13-2.52 2.72-1.3 3.54 1.26.85 1.25.94-.07.69-1.71-.32-6.97 3.45-6.97 5.01 0 .56.89.78 1.99.49 1.09-.28 1.79-.83 1.55-1.22M477.59 878.48c104.88-9.52 199.85-53.79 273.43-127.44 75.14-75.22 118.97-170.77 127.9-278.82.44-5.35.86 84.22.94 199.03L880 880l-208.25-.12c-176.4-.1-206.1-.31-194.16-1.4M449 482.91c-25.98-.94-60.07-3.51-72.69-5.48-4.73-.74-8.87-5.4-27.81-31.31-5.95-8.14-6.47-8.56-20-16.18-7.98-4.49-58.2-31.34-65.75-35.15-7.83-3.96-8.24-4.36-7.14-7.21.84-2.19 2.65-1.99 8.39.92 2.71 1.38 5.34 2.5 5.84 2.5s5.29-5.25 10.65-11.66c9.45-11.33 9.67-11.71 7.74-13.25-1.09-.88-5.3-4.34-9.36-7.7-32-26.5-70.69-41.68-109.94-43.13-56.49-2.08-103.84 17.54-159.05 65.92l-6.63 5.8-1.14 12.76C1.48 406.76.83 414.52.66 417S.27 326.66.17 210.75L0 0l211.25.17C327.44.27 420.48.49 418 .66c-68.7 4.71-121.67 18.97-179 48.18-51.22 26.09-101.63 66.69-134.72 108.5-3.12 3.94-5.96 7.39-6.3 7.66-2.6 2.07-21.95 29.47-29.67 42-16.85 27.38-36.91 68.56-42.8 87.88-.84 2.74-1.37 2.99 9.49-4.42 39.82-27.17 79.65-38.91 126-37.12 37.19 1.43 68.88 11.16 100.09 30.72 18.38 11.52 37.96 29.09 49.53 44.47 3.12 4.14 5.78 7.4 5.92 7.25.46-.49 20.62-26.08 32.62-41.39 42.9-54.75 58.31-74.31 60.89-77.3 1.62-1.87 2.95-3.47 2.95-3.55 0-.07-1.58.05-3.5.27-2.71.32-3.5.05-3.5-1.19 0-1.11 1.3-1.8 4.25-2.25 3.32-.52 5.2-1.67 8.59-5.27 7.21-7.64 9.15-11.49 11.23-22.23 2.5-12.87 2.54-16.33.18-15.36-3.65 1.5-5.25 1.69-5.25.61 0-.62.57-1.12 1.27-1.12.69 0 3.28-1.13 5.75-2.51 8.59-4.81 23.54-12.13 31.72-15.55 7.41-3.09 8.24-3.71 8.25-6.12.01-2.93 3.38-4.85 5.24-2.99.6.6.97 5.48.89 11.6l-.14 10.57h10.81c5.95 0 11.26-.45 11.81-1 .67-.67 2.98.2 6.95 2.64a443 443 0 0 0 12.45 7.31c3.58 2 7.74 4.47 9.25 5.46l2.75 1.82V161.7c0-9.1.27-17.25.61-18.12.33-.87 1.63-1.58 2.88-1.58 2.93 0 3.12 1.33 3.42 23.64l.23 17.48 11.62 18.69c11.49 18.49 16.31 26.06 31.79 49.97 4.37 6.76 9.66 15.05 11.75 18.44 5.65 9.13 38.83 57.69 47.69 69.78 50.14 68.41 53.76 73 57.58 73 2.75 0 3.78 1.33 2.98 3.85-.6 1.88-4.8 2.55-46.55 7.44l-10.5 1.23-.3 5.79-.3 5.8 3.8-.62c2.09-.34 5.04-.86 6.55-1.14 1.71-.31 2.75-.07 2.75.65 0 .63-3.85 5.95-8.55 11.82s-9.73 12.7-11.17 15.18c-1.44 2.47-4.33 6.82-6.42 9.66l-3.79 5.16-7.29.61c-56.21 4.66-120.52 6.34-171.78 4.48m22-52.02v-19.11l-18.75.47c-12.57.31-21.34 1.04-26.61 2.2-9.12 2.02-22.45 7.18-31.37 12.16-5.16 2.87-6.08 3.77-5.33 5.18.5.94 1.14 2.44 1.41 3.33.31 1.05 2.15 1.88 5.14 2.33 2.69.4 5.56 1.6 6.8 2.84 1.19 1.19 3.07 2.3 4.18 2.47 1.12.17 6.3 1 11.53 1.85 17.56 2.84 37.44 5.16 45.25 5.28l7.75.11zm52 18.23 7.5-.62.3-4.08c.28-3.8-.15-4.56-6.39-11.3-5.74-6.19-8.18-7.95-17.09-12.3-5.72-2.79-10.65-4.82-10.97-4.51-.31.32-.05 7.41.59 15.75.64 8.35 1.02 15.28.86 15.42-.17.13-1.58.54-3.13.92-1.86.45-2.62.32-2.19-.36.35-.57 1.24-1.04 1.97-1.04 2.18 0 2.31-1.82 1.15-16.95l-1.1-14.46-6.5-1.23c-11.43-2.17-10.41-3.81-9.68 15.5.35 9.28.92 17.6 1.27 18.5.55 1.44 2.78 1.62 18.27 1.51 9.7-.07 21.02-.41 25.14-.75m35.36-3.13c1.19-1.13 1.91-9.24.93-10.62-.54-.77-3.88-.97-10.54-.61l-9.75.51v12.94l9.25-.7c5.09-.39 9.64-1.08 10.11-1.52m23-1.63c5.14-.7 5.53-1.61 3.64-8.42l-.99-3.57-6.26.36c-10.9.64-10.75.54-10.75 6.79V445h4.86c2.67 0 6.95-.29 9.5-.64m23.52-1.98c3.07-.62 3.12-.73 3.12-6.5V430l-3.75.01c-2.06.01-5.39.28-7.39.61-3.26.54-3.7.99-4.22 4.24-1.03 6.43-.01 8.14 4.85 8.14 2.34 0 5.67-.28 7.39-.62M402 441.05c0-.82-5.99-3.03-8.25-3.04-2.13-.02-.32 2.06 2.5 2.87 4.37 1.26 5.75 1.3 5.75.17m222.83-1.7c1.28-.34 2.73-1.69 3.22-2.99 1.16-3.06 2.34-2.99 3.8.22 1.79 3.92 3.58 2.37 4.24-3.66.33-2.98.47-5.67.32-5.97-.4-.79-17.74 1.05-18.71 1.99-.45.42-.5 3.08-.12 5.91.72 5.48 1.58 6.02 7.25 4.5M389 436.69c0-1.27-.6-3.12-1.32-4.12-1.15-1.57-1.61-1.63-3.46-.48-1.17.74-2.43 1.04-2.79.67-.37-.37.17-3.95 1.2-7.96 2.59-10.13 2.6-41.13.01-50.8-3.41-12.74-3.54-13-6.57-13h-2.77l-.63 8.81c-.34 4.84-.42 11.03-.17 13.75.24 2.72.66 10.24.94 16.72l.49 11.78-4.72-3.97c-7.28-6.14-33.19-19.44-34.77-17.86-1.54 1.54 14.35 34.81 17.78 37.22 1.25.88 6.33 2.91 11.28 4.5 4.95 1.6 9.79 3.21 10.75 3.58 1.36.53 1.76.16 1.79-1.67.04-2.29.09-2.27 1.57.46 1.25 2.3 1.79 2.59 2.98 1.61 1.18-.99 1.34-.92.85.36-.46 1.2.2 1.67 2.73 1.98 1.83.23 3.67.48 4.08.57s.75-.88.75-2.15M531.35 400c.52-31.29.43-35.13-.84-32.36-2.61 5.74-5.51 22.86-5.5 32.52 0 11.75 3.92 37.41 5.44 35.68.17-.19.57-16.32.9-35.84m-185.4 25.93c-3.28-4.61-11.82-13.91-26.38-28.74l-13.07-13.3-7 .6c-15.14 1.31-21.96 2.65-24.25 4.77-1.24 1.15-2.25 2.41-2.25 2.81s11.77 6.51 26.15 13.58 30.7 15.19 36.25 18.06c11.91 6.15 13.6 6.5 10.55 2.22m229.94.57c10.45-.91 15.65-1.76 16.2-2.65.51-.82.26-1.63-.63-2.13-3.58-2.01-22.09-4.33-48.71-6.11l-4.75-.32v13.97l11.25-.72c6.19-.39 18.18-1.31 26.64-2.04m46.61-4.52c16.53-1.46 66.36-6.88 69.86-7.6l2.85-.59-4.29-4.37c-6.72-6.85-20.76-12.2-53.42-20.36-15.11-3.78-55.31-11.58-56.02-10.88-.3.31 8.52 31.96 11.63 41.69l1.39 4.37 8-.6c4.4-.32 13.4-1.07 20-1.66M331 394.43c0-2.11-2.44-4.43-4.68-4.45-1.56-.01-1.61-.16-.32-1.08 1.16-.82.91-.93-1.15-.49-1.48.32-3.87-.06-5.43-.87-2.85-1.47-5.72-.98-3.28.57 1.13.71 1.13.86.02.87-.74.01-1.58-.87-1.86-1.96-.35-1.34-1.27-1.92-2.84-1.79-1.27.11-2.08.58-1.79 1.05s1.19.61 1.98.3c.8-.31 1.21-.16.91.32-.79 1.28 1.75 3.07 4.72 3.31 1.42.12 2.37.55 2.12.96-.26.41-1.24.51-2.18.22-.95-.29-.6.14.77.95 1.37.82 2.85 1.26 3.29.99.44-.28 1.46.04 2.26.71 1.11.91 1.46.92 1.46.03 0-.8.73-.67 2.22.37 2.82 1.97 3.78 1.97 3.78-.01m245-48.53c-2.75-38.23-17.41-104.64-32.19-145.9-1.67-4.68-3.27-9.52-3.55-10.76-.27-1.25-.78-2.45-1.13-2.66-.95-.59-.11 52.74.85 53.91.45.55 4.25 12.03 8.45 25.51s9.18 29.45 11.06 35.5c4.07 13.01 12.68 43.17 15.08 52.79.93 3.73 1.87 6.61 2.08 6.39.22-.21-.08-6.87-.65-14.78m-198.26 8.85c1.72-1.79 5.61-8.74 8.64-15.46 8.56-18.96 12.62-34.21 12.62-47.38 0-9.17-1.51-11.28-7.66-10.7-3.59.35-3.92.66-5.12 4.83-.71 2.45-1.71 5.81-2.22 7.46-4.38 14.05-12.36 64.5-10.2 64.5.44 0 2.22-1.46 3.94-3.25m56.55 1.91 17.8-.34 4.03-3.91c2.22-2.15 5.89-6.71 8.15-10.13 2.27-3.43 4.28-6.06 4.48-5.86.56.56-6.19 10.62-10.13 15.08-1.97 2.23-3.04 4.17-2.41 4.39 1.31.45 5.74-4.57 9.44-10.69 1.42-2.36 2.85-4.04 3.15-3.73.31.31.03 1.1-.62 1.75-1.65 1.65-1.47 2.78.43 2.78 1.26 0 1.51-.73 1.14-3.25-.56-3.83 1.07-8.03 2.86-7.34.7.26 1.4.07 1.58-.43.18-.55.89-.55 1.77-.01 1.08.67 1.57 3.56 1.87 10.97.39 9.78.47 10.06 2.75 10.06 2.32 0 2.35-.13 1.92-8.25l-.43-8.25 1.39 8c.76 4.4 1.42 8.11 1.46 8.25.05.14.59.25 1.21.25.79 0 .97-2.73.6-9.25l-.53-9.25 1.15 9 1.15 9 4.5.34c7.68.58 39-1 39-1.97 0-2.19-6.71-8-12.37-10.72-16.05-7.7-30.85-11.07-55.71-12.68-19.05-1.23-46.32 2.63-59.4 8.42-9.44 4.17-27.08 16.39-26.06 18.04.25.4 8.91.58 19.25.4zm36.34-2.91c-.33-1.24-.61-3.21-.62-4.38 0-1.29-.81-2.34-2.01-2.66-1.1-.29-2-.2-2 .2s-1.61 2.61-3.58 4.91l-3.58 4.18h6.2c5.93 0 6.17-.09 5.59-2.25m61.14-54-.27-16.25-2.2 7c-5.76 18.38-5.75 37.59.04 52.44l2.16 5.56.27-16.25c.16-8.94.16-23.56 0-32.5M65.56 285.53c1.07-.81 2.61-1.48 3.42-1.5.82-.02 5.32-1.78 10-3.91 8.37-3.81 29.7-9.55 39.52-10.62 2.75-.3 8.38-1.05 12.5-1.66 8.93-1.31 46.32-1.93 49.96-.81 1.4.43 7.27 1.31 13.04 1.96s11.4 1.51 12.5 1.92 3.12.46 4.5.12c2.12-.53 1.58-.88-3.5-2.3-3.3-.92-8.93-2.12-12.5-2.67-3.57-.54-11-1.72-16.5-2.61-12.45-2.03-50.06-1.46-60.5.92-18.46 4.19-28.44 7.12-31.59 9.26-1.93 1.3-4.35 2.37-5.4 2.37-1.04 0-2.15.42-2.46.92-.32.51-2.03 1.23-3.81 1.61-3.27.69-8.23 3.31-12.62 6.65-2.17 1.65-2.21 1.82-.45 1.82 1.07 0 2.82-.66 3.89-1.47M392.02 279c2.6 0 10.26-9.64 14.71-18.5 8.66-17.23 14.8-43.5 10.16-43.5-.49 0-.89-.68-.89-1.5 0-2.98-1.78-1.39-4.76 4.25-4.92 9.33-23.1 56.01-23.21 59.61-.02.47.68.58 1.55.25.87-.34 1.97-.61 2.44-.61m70.48-1c.34-.56-.41-1.01-1.69-1.02-1.27 0-2.98-.45-3.81-.98-1.13-.73-.66-.97 1.92-.98 1.88-.01 4.32-.81 5.42-1.77s1.66-1.17 1.25-.46c-1 1.7 1.03 4.09 3.2 3.77 1.42-.21 1.74-1.51 1.87-7.66.08-4.07.41-9.31.73-11.65l.57-4.25-9.23.02c-21.67.05-37.92 5.07-56.88 17.6-11.63 7.69-11.51 7.74 16.38 6.97 14.63-.4 25.46-.29 27.27.29 4.05 1.28 12.23 1.36 13 .12m17.42-2.75c.97-1.67 1.02-1.67 1.05 0 .02.96.54 1.75 1.16 1.75.75 0 .92-1.26.51-3.75-.34-2.06-.62-7.24-.63-11.5-.01-6.92-.21-7.75-1.89-7.75-2.51 0-3.09 2.59-3.11 13.75-.01 9.02.8 11.12 2.91 7.5m29.73.75h22.49l-.32-2.21c-.89-6.14-24.19-16.32-44.21-19.33l-4.61-.69v6.98c0 10.67 1 16.46 2.72 15.8.8-.3 11.56-.55 23.93-.55m22.13-51.25-.28-14.25-2.6 5.5c-4.11 8.72-6.28 18.14-5.56 24.22.84 7.05 3.18 15.81 5.92 22.12l2.24 5.16.28-14.25c.15-7.84.15-20.66 0-28.5m-81.56-14.98c11.4-.21 20.91-.58 21.14-.82.78-.83 1.18-15.78.42-15.31-.42.25-.49-.23-.16-1.09.49-1.27-.3-1.55-4.39-1.55-10.97 0-34.78 5.51-40.76 9.43-1.18.77-3.99 3.6-6.24 6.3l-4.1 4.89 6.68-.74c3.68-.4 16.01-.91 27.41-1.11m57.59-1.65 7.3-.62-4.57-3.81c-6.28-5.24-13.51-8.34-23.51-10.07-7.84-1.36-12.99-.95-10.16.8.66.41 1.13 3.56 1.13 7.64V209l11.25-.13c6.19-.07 14.54-.41 18.56-.75m23.83-1.42c.14-.15.33-5.97.42-12.95l.16-12.69-2.86-2.35c-1.57-1.29-6.46-4.48-10.86-7.1-4.4-2.61-8.77-5.26-9.7-5.89-2.72-1.83-3.3-.14-3.3 9.62 0 11.05 2.8 20.68 8.16 28.04l3.55 4.89 7.09-.66c3.89-.36 7.2-.77 7.34-.91m-74.89-43.27 15.25-.69v-15.58l-8.65 3.49c-9.95 4.01-28.35 13.08-28.35 13.97 0 .33 1.46.35 3.25.05 1.79-.31 10.11-.87 18.5-1.24m31.53-8.26c-5.07-2.57-9.23-5.24-9.25-5.94-.02-.98.5-.93 2.22.18 1.24.8 6.08 3.51 10.75 6.01 11.16 5.97 8.15 5.77-3.72-.25m-7.89 291.25c.34-.87.68-8.41.77-16.75.14-13 .26-14.1.87-7.67.94 9.91 1.12 22.44.36 24.42-.33.87-1.05 1.58-1.6 1.58s-.73-.71-.4-1.58m-31.12-170.11c.97-.26 2.32-.24 3 .03.68.28-.12.49-1.77.47-1.65-.03-2.2-.25-1.23-.5m18.28-4.06c.79-1.51 1.44-3.39 1.44-4.17.01-.78.28-1.14.61-.81.81.81-1.53 7.73-2.62 7.73-.47 0-.22-1.24.57-2.75"/></svg>