<svg xmlns="http://www.w3.org/2000/svg" width="880" height="880" viewBox="0 0 880 880">
<g>
<path d="M 0.14 670.75 L 0.00 880.00 L 0.00 0.00 L 880.00 0.00 L 668.25 0.12 C487.67,0.23 458.86,0.44 472.50,1.53 C528.66,6.03 574.74,17.89 624.00,40.52 C733.21,90.68 817.83,184.64 856.79,299.00 L 857.39 300.74 C862.07,314.46 863.30,318.09 862.01,319.98 C861.49,320.74 860.57,321.23 859.30,321.97 C848.48,328.31 829.34,342.87 816.62,354.43 C808.40,361.90 785.34,387.31 778.47,396.46 C736.53,452.35 726.31,463.67 699.92,483.47 C673.18,503.54 634.84,519.31 596.83,525.90 C576.61,529.40 564.93,530.31 540.00,530.32 C515.72,530.33 508.08,529.67 478.11,524.95 C462.59,522.51 434.24,515.53 407.00,507.44 C352.90,491.38 333.96,487.50 304.00,486.32 C271.22,485.02 238.47,492.21 209.50,507.05 C194.95,514.50 187.85,519.01 174.00,529.59 C163.07,537.94 143.30,557.78 136.71,567.00 C110.08,604.30 97.13,633.96 83.55,688.80 C82.83,691.71 82.02,694.32 81.74,694.59 C81.47,694.87 78.30,690.68 74.70,685.30 C31.86,621.09 7.34,550.02 1.12,472.00 C1.10,471.79 1.08,471.69 1.07,471.69 C0.60,471.69 0.22,553.65 0.14,670.75 ZM 449.00 482.91 C500.26,484.77 564.57,483.09 620.78,478.43 L 628.07 477.82 L 631.86 472.66 C633.95,469.82 636.84,465.47 638.28,463.00 C639.72,460.52 644.75,453.69 649.45,447.82 C654.15,441.95 658.00,436.63 658.00,436.00 C658.00,435.28 656.96,435.04 655.25,435.35 C653.74,435.63 650.79,436.15 648.70,436.49 L 644.90 437.11 L 645.20 431.31 L 645.50 425.52 L 656.00 424.29 C697.75,419.40 701.95,418.73 702.55,416.85 C703.35,414.33 702.32,413.00 699.57,413.00 C695.75,413.00 692.13,408.41 641.99,340.00 C633.13,327.91 599.95,279.35 594.30,270.22 C592.21,266.83 586.92,258.54 582.55,251.78 C567.07,227.87 562.25,220.30 550.76,201.81 L 539.14 183.12 L 538.91 165.64 C538.61,143.33 538.42,142.00 535.49,142.00 C534.24,142.00 532.94,142.71 532.61,143.58 C532.27,144.45 532.00,152.60 532.00,161.70 L 532.00 178.23 L 529.25 176.41 C527.74,175.42 523.58,172.95 520.00,170.95 C516.42,168.94 510.82,165.65 507.55,163.64 C503.58,161.20 501.27,160.33 500.60,161.00 C500.05,161.55 494.74,162.00 488.79,162.00 L 477.98 162.00 L 478.12 151.43 C478.20,145.31 477.83,140.43 477.23,139.83 C475.37,137.97 472.00,139.89 471.99,142.82 C471.98,145.23 471.15,145.85 463.74,148.94 C455.56,152.36 440.61,159.68 432.02,164.49 C429.55,165.87 426.96,167.00 426.27,167.00 C425.57,167.00 425.00,167.50 425.00,168.12 C425.00,169.20 426.60,169.01 430.25,167.51 C432.61,166.54 432.57,170.00 430.07,182.87 C427.99,193.61 426.05,197.46 418.84,205.10 C415.45,208.70 413.57,209.85 410.25,210.37 C407.30,210.82 406.00,211.51 406.00,212.62 C406.00,213.86 406.79,214.13 409.50,213.81 C411.42,213.59 413.00,213.47 413.00,213.54 C413.00,213.62 411.67,215.22 410.05,217.09 C407.47,220.08 392.06,239.64 349.16,294.39 C337.16,309.70 317.00,335.29 316.54,335.78 C316.40,335.93 313.74,332.67 310.62,328.53 C299.05,313.15 279.47,295.58 261.09,284.06 C229.88,264.50 198.19,254.77 161.00,253.34 C114.65,251.55 74.82,263.29 35.00,290.46 C34.45,290.83 33.92,291.19 33.43,291.53 C27.40,295.65 25.53,296.92 25.18,296.59 C25.02,296.44 25.17,295.96 25.39,295.27 C25.43,295.15 25.47,295.01 25.51,294.88 C31.40,275.56 51.46,234.38 68.31,207.00 C76.03,194.47 95.38,167.07 97.98,165.00 C98.32,164.73 101.16,161.28 104.28,157.34 C137.37,115.53 187.78,74.93 239.00,48.84 C296.33,19.63 349.30,5.37 418.00,0.66 C418.03,0.66 418.05,0.65 418.05,0.65 C418.05,0.48 325.92,0.27 211.25,0.17 L 0.00 0.00 L 0.17 210.75 C0.27,325.15 0.48,417.05 0.65,417.05 C0.66,417.05 0.66,417.03 0.66,417.00 C0.83,414.52 1.48,406.76 2.11,399.74 L 3.25 386.98 L 9.88 381.18 C65.09,332.80 112.44,313.18 168.93,315.26 C208.18,316.71 246.87,331.89 278.87,358.39 C282.93,361.75 287.14,365.21 288.23,366.09 C290.16,367.63 289.94,368.01 280.49,379.34 C275.13,385.75 270.34,391.00 269.84,391.00 C269.34,391.00 266.71,389.88 264.00,388.50 C258.26,385.59 256.45,385.39 255.61,387.58 C254.51,390.43 254.92,390.83 262.75,394.79 C270.30,398.60 320.52,425.45 328.50,429.94 C342.03,437.56 342.55,437.98 348.50,446.12 C367.44,472.03 371.58,476.69 376.31,477.43 C388.93,479.40 423.02,481.97 449.00,482.91 ZM 622.50 421.98 C615.90,422.57 606.90,423.32 602.50,423.64 L 594.50 424.24 L 593.11 419.87 C590.00,410.14 581.18,378.49 581.48,378.18 C582.19,377.48 622.39,385.28 637.50,389.06 C670.16,397.22 684.20,402.57 690.92,409.42 L 695.21 413.79 L 692.36 414.38 C688.86,415.10 639.03,420.52 622.50,421.98 ZM 434.29 356.66 C424.51,356.84 408.04,357.14 397.71,357.33 C387.37,357.51 378.71,357.33 378.46,356.93 C377.44,355.28 395.08,343.06 404.52,338.89 C417.60,333.10 444.87,329.24 463.92,330.47 C488.78,332.08 503.58,335.45 519.63,343.15 C525.29,345.87 532.00,351.68 532.00,353.87 C532.00,354.84 500.68,356.42 493.00,355.84 L 488.50 355.50 L 487.35 346.50 L 486.20 337.50 L 486.73 346.75 C487.10,353.27 486.92,356.00 486.13,356.00 C485.51,356.00 484.97,355.89 484.92,355.75 C484.88,355.61 484.22,351.90 483.46,347.50 L 482.07 339.50 L 482.50 347.75 C482.93,355.87 482.90,356.00 480.58,356.00 C478.30,356.00 478.22,355.72 477.83,345.94 C477.53,338.53 477.04,335.64 475.96,334.97 C475.08,334.43 474.37,334.43 474.19,334.98 C474.01,335.48 473.31,335.67 472.61,335.41 C470.82,334.72 469.19,338.92 469.75,342.75 C470.12,345.27 469.87,346.00 468.61,346.00 C466.71,346.00 466.53,344.87 468.18,343.22 C468.83,342.57 469.11,341.78 468.80,341.47 C468.50,341.16 467.07,342.84 465.65,345.20 C461.95,351.32 457.52,356.34 456.21,355.89 C455.58,355.67 456.65,353.73 458.62,351.50 C462.56,347.04 469.31,336.98 468.75,336.42 C468.55,336.22 466.54,338.85 464.27,342.28 C462.01,345.70 458.34,350.26 456.12,352.41 L 452.09 356.32 ZM 471.00 411.78 L 471.00 450.00 L 463.25 449.89 C455.44,449.77 435.56,447.45 418.00,444.61 C412.77,443.76 407.59,442.93 406.47,442.76 C405.36,442.59 403.48,441.48 402.29,440.29 C401.05,439.05 398.18,437.85 395.49,437.45 C392.50,437.00 390.66,436.17 390.35,435.12 C390.08,434.23 389.44,432.73 388.94,431.79 C388.19,430.38 389.11,429.48 394.27,426.61 C403.19,421.63 416.52,416.47 425.64,414.45 C430.91,413.29 439.68,412.56 452.25,412.25 ZM 389.00 436.69 C389.00,437.96 388.66,438.93 388.25,438.84 C387.84,438.75 386.00,438.50 384.17,438.27 C381.64,437.96 380.98,437.49 381.44,436.29 C381.93,435.01 381.77,434.94 380.59,435.93 C379.40,436.91 378.86,436.62 377.61,434.32 C376.13,431.59 376.08,431.57 376.04,433.86 C376.01,435.69 375.61,436.06 374.25,435.53 C373.29,435.16 368.45,433.55 363.50,431.95 C358.55,430.36 353.47,428.33 352.22,427.45 C348.79,425.04 332.90,391.77 334.44,390.23 C336.02,388.65 361.93,401.95 369.21,408.09 L 373.93 412.06 L 373.44 400.28 C373.16,393.80 372.74,386.28 372.50,383.56 C372.25,380.84 372.33,374.65 372.67,369.81 L 373.30 361.00 L 376.07 361.00 C379.10,361.00 379.23,361.26 382.64,374.00 C385.23,383.67 385.22,414.67 382.63,424.80 C381.60,428.81 381.06,432.39 381.43,432.76 C381.79,433.13 383.05,432.83 384.22,432.09 C386.07,430.94 386.53,431.00 387.68,432.57 C388.40,433.57 389.00,435.42 389.00,436.69 ZM 576.00 345.90 C576.57,353.81 576.87,360.47 576.65,360.68 C576.44,360.90 575.50,358.02 574.57,354.29 C572.17,344.67 563.56,314.51 559.49,301.50 C557.61,295.45 552.63,279.48 548.43,266.00 C544.23,252.52 540.43,241.04 539.98,240.49 C539.02,239.32 538.18,185.99 539.13,186.58 C539.48,186.79 539.99,187.99 540.26,189.24 C540.54,190.48 542.14,195.32 543.81,200.00 C558.59,241.26 573.25,307.67 576.00,345.90 ZM 523.00 449.12 C518.88,449.46 507.56,449.80 497.86,449.87 C482.37,449.98 480.14,449.80 479.59,448.36 C479.24,447.46 478.67,439.14 478.32,429.86 C478.26,428.17 478.19,426.63 478.13,425.25 C477.81,417.73 477.67,414.56 479.09,413.52 C480.14,412.76 482.01,413.14 485.27,413.81 C486.09,413.98 487.00,414.17 488.00,414.36 L 494.50 415.59 L 495.60 430.05 C496.76,445.18 496.63,447.00 494.45,447.00 C493.72,447.00 492.83,447.47 492.48,448.04 C492.05,448.72 492.81,448.85 494.67,448.40 C496.22,448.02 497.63,447.61 497.80,447.48 C497.96,447.34 497.58,440.41 496.94,432.06 C496.30,423.72 496.04,416.63 496.35,416.31 C496.67,416.00 501.60,418.03 507.32,420.82 C516.23,425.17 518.67,426.93 524.41,433.12 C530.65,439.86 531.08,440.62 530.80,444.42 L 530.50 448.50 ZM 462.50 278.00 C461.73,279.24 453.55,279.16 449.50,277.88 C447.69,277.30 436.86,277.19 422.23,277.59 C394.34,278.36 394.22,278.31 405.85,270.62 C424.81,258.09 441.06,253.07 462.73,253.02 L 471.96 253.00 L 471.39 257.25 C471.07,259.59 470.74,264.83 470.66,268.90 C470.53,275.05 470.21,276.35 468.79,276.56 C466.62,276.88 464.59,274.49 465.59,272.79 C466.00,272.08 465.44,272.29 464.34,273.25 C463.24,274.21 460.80,275.01 458.92,275.02 C456.34,275.03 455.87,275.27 457.00,276.00 C457.83,276.53 459.54,276.98 460.81,276.98 C462.09,276.99 462.84,277.44 462.50,278.00 ZM 345.95 425.93 C349.00,430.21 347.31,429.86 335.40,423.71 C329.85,420.84 313.53,412.72 299.15,405.65 C284.77,398.58 273.00,392.47 273.00,392.07 C273.00,391.67 274.01,390.41 275.25,389.26 C277.54,387.14 284.36,385.80 299.50,384.49 L 306.50 383.89 L 319.57 397.19 C334.13,412.02 342.67,421.32 345.95,425.93 ZM 377.74 354.75 C376.02,356.54 374.24,358.00 373.80,358.00 C371.64,358.00 379.62,307.55 384.00,293.50 C384.51,291.85 385.51,288.49 386.22,286.04 C387.42,281.87 387.75,281.56 391.34,281.21 C397.49,280.63 399.00,282.74 399.00,291.91 C399.00,305.08 394.94,320.33 386.38,339.29 C383.35,346.01 379.46,352.96 377.74,354.75 ZM 573.44 541.95 C557.56,543.14 542.29,543.10 524.00,541.83 C510.12,540.86 488.59,537.98 486.75,536.84 C484.24,535.29 486.96,535.05 494.58,536.14 C525.22,540.54 561.15,539.67 600.50,533.56 C604.43,532.95 617.57,529.78 621.50,528.50 C623.70,527.78 628.20,526.42 631.50,525.47 C645.41,521.49 665.15,513.67 665.84,511.87 C666.02,511.38 666.57,511.23 667.05,511.53 C667.54,511.83 672.73,509.36 678.59,506.04 C684.46,502.72 689.62,500.00 690.07,500.00 C690.52,500.00 691.47,499.17 692.19,498.16 C692.91,497.15 694.62,495.73 696.00,495.00 C697.38,494.28 699.18,492.97 700.02,492.09 C701.76,490.26 708.09,486.75 708.65,487.31 C709.53,488.20 703.90,493.06 702.75,492.40 C702.06,492.00 701.82,492.04 702.22,492.48 C702.99,493.33 695.21,499.97 693.42,499.99 C692.82,500.00 691.09,501.39 689.58,503.09 C688.07,504.78 685.37,506.78 683.59,507.53 C681.80,508.27 679.76,509.59 679.05,510.44 C678.34,511.30 677.36,512.00 676.87,512.00 C676.38,512.00 669.92,514.91 662.51,518.47 C655.11,522.04 647.80,525.25 646.27,525.61 C644.75,525.97 642.38,526.85 641.00,527.56 C638.62,528.80 618.55,534.66 609.00,536.92 C599.40,539.18 586.92,540.95 573.44,541.95 ZM 531.64 206.70 C531.50,206.84 528.19,207.25 524.30,207.61 L 517.21 208.27 L 513.66 203.38 C508.30,196.02 505.50,186.39 505.50,175.34 C505.50,165.58 506.08,163.89 508.80,165.72 C509.73,166.35 514.10,169.00 518.50,171.61 C522.90,174.23 527.79,177.42 529.36,178.71 L 532.22 181.06 L 532.06 193.75 C531.97,200.73 531.78,206.55 531.64,206.70 ZM 196.94 526.59 C191.68,529.57 186.80,532.00 186.11,532.00 C184.33,532.00 189.01,526.27 191.50,525.41 C192.60,525.02 195.74,523.20 198.49,521.36 C201.23,519.51 203.80,518.00 204.20,518.00 C204.60,518.00 211.32,514.85 219.14,511.00 C226.96,507.15 233.88,504.00 234.52,504.00 C235.16,504.00 238.35,503.06 241.59,501.91 C244.84,500.77 249.98,499.41 253.00,498.91 C256.02,498.40 260.98,497.53 264.00,496.96 C272.77,495.31 297.44,493.99 310.50,494.48 C320.96,494.87 326.67,495.69 346.50,499.61 C352.24,500.74 352.30,500.75 354.50,500.92 C356.39,501.05 356.40,501.12 354.69,502.12 C352.86,503.18 350.35,503.06 331.50,501.07 C306.62,498.45 282.13,498.95 266.00,502.41 C262.42,503.17 256.12,504.49 252.00,505.34 C243.49,507.08 232.03,510.20 230.43,511.21 C229.85,511.59 226.70,512.87 223.43,514.07 C214.24,517.45 207.34,520.71 196.94,526.59 ZM 450.22 209.77 C438.82,209.97 426.49,210.48 422.81,210.88 L 416.13 211.62 L 420.23 206.73 C422.48,204.03 425.29,201.20 426.47,200.43 C432.45,196.51 456.26,191.00 467.23,191.00 C471.32,191.00 472.11,191.28 471.62,192.55 C471.29,193.41 471.36,193.89 471.78,193.64 C472.54,193.17 472.14,208.12 471.36,208.95 C471.13,209.19 461.62,209.56 450.22,209.77 ZM 509.65 276.00 C497.28,276.00 486.52,276.25 485.72,276.55 C484.00,277.21 483.00,271.42 483.00,260.75 L 483.00 253.77 L 487.61 254.46 C507.63,257.47 530.93,267.65 531.82,273.79 L 532.14 276.00 ZM 392.02 279.00 C391.55,279.00 390.45,279.27 389.58,279.61 C388.71,279.94 388.01,279.83 388.03,279.36 C388.14,275.76 406.32,229.08 411.24,219.75 C414.22,214.11 416.00,212.52 416.00,215.50 C416.00,216.32 416.40,217.00 416.89,217.00 C421.53,217.00 415.39,243.27 406.73,260.50 C402.28,269.36 394.62,279.00 392.02,279.00 ZM 65.56 285.53 C64.49,286.34 62.74,287.00 61.67,287.00 C59.91,287.00 59.95,286.83 62.12,285.18 C66.51,281.84 71.47,279.22 74.74,278.53 C76.52,278.15 78.23,277.43 78.55,276.92 C78.86,276.42 79.97,276.00 81.01,276.00 C82.06,276.00 84.48,274.93 86.41,273.63 C89.56,271.49 99.54,268.56 118.00,264.37 C128.44,261.99 166.05,261.42 178.50,263.45 C184.00,264.34 191.43,265.52 195.00,266.06 C198.57,266.61 204.20,267.81 207.50,268.73 C212.58,270.15 213.12,270.50 211.00,271.03 C209.62,271.37 207.60,271.32 206.50,270.91 C205.40,270.50 199.77,269.64 194.00,268.99 C188.23,268.34 182.36,267.46 180.96,267.03 C177.32,265.91 139.93,266.53 131.00,267.84 C126.88,268.45 121.25,269.20 118.50,269.50 C108.68,270.57 87.35,276.31 78.98,280.12 C74.30,282.25 69.80,284.01 68.98,284.03 C68.17,284.05 66.63,284.72 65.56,285.53 ZM 575.89 426.50 C567.43,427.23 555.44,428.15 549.25,428.54 L 538.00 429.26 L 538.00 415.29 L 542.75 415.61 C569.37,417.39 587.88,419.71 591.46,421.72 C592.35,422.22 592.60,423.03 592.09,423.85 C591.54,424.74 586.34,425.59 575.89,426.50 ZM 507.81 208.12 C503.79,208.46 495.44,208.80 489.25,208.87 L 478.00 209.00 L 478.00 202.06 C478.00,197.98 477.53,194.83 476.87,194.42 C474.04,192.67 479.19,192.26 487.03,193.62 C497.03,195.35 504.26,198.45 510.54,203.69 L 515.11 207.50 ZM 456.75 163.43 C448.36,163.80 440.04,164.36 438.25,164.67 C436.46,164.97 435.00,164.95 435.00,164.62 C435.00,163.73 453.40,154.66 463.35,150.65 L 472.00 147.16 L 472.00 162.74 ZM 531.78 224.75 C531.93,232.59 531.93,245.41 531.78,253.25 L 531.50 267.50 L 529.26 262.34 C526.52,256.03 524.18,247.27 523.34,240.22 C522.62,234.14 524.79,224.72 528.90,216.00 L 531.50 210.50 ZM 531.35 400.00 C531.02,419.52 530.62,435.65 530.45,435.84 C528.93,437.57 525.01,411.91 525.01,400.16 C525.00,390.50 527.90,373.38 530.51,367.64 C531.78,364.87 531.87,368.71 531.35,400.00 ZM 531.77 299.75 C531.93,308.69 531.93,323.31 531.77,332.25 L 531.50 348.50 L 529.34 342.94 C523.55,328.09 523.54,308.88 529.30,290.50 L 531.50 283.50 ZM 821.54 362.07 C821.78,362.46 821.08,363.01 819.99,363.29 C818.89,363.58 818.00,363.36 818.00,362.80 C818.00,361.24 823.26,357.47 824.97,357.79 C826.29,358.04 826.30,357.95 825.04,357.10 C823.82,356.28 824.04,355.69 826.34,353.56 C827.86,352.15 828.75,351.00 828.32,351.00 C827.88,351.00 829.10,350.14 831.02,349.09 C832.93,348.04 834.39,346.70 834.26,346.12 C834.13,345.55 834.59,345.29 835.28,345.56 C836.70,346.10 839.34,344.30 845.39,338.69 C847.78,336.48 848.66,335.19 847.50,335.62 C846.19,336.11 846.58,335.44 848.64,333.68 C851.94,330.87 853.62,330.19 852.40,332.15 C851.96,332.88 852.13,333.04 852.86,332.59 C853.51,332.19 853.79,331.46 853.48,330.97 C852.74,329.77 858.77,326.74 860.18,327.61 C860.83,328.01 861.03,327.86 860.67,327.27 C860.31,326.70 860.63,325.72 861.38,325.10 C862.41,324.25 863.05,324.36 864.04,325.55 C865.91,327.80 864.19,331.97 860.36,334.47 C853.19,339.15 847.51,342.62 843.95,344.51 C841.86,345.61 837.30,349.01 833.82,352.07 C830.35,355.13 826.06,358.47 824.30,359.50 C822.55,360.53 821.30,361.68 821.54,362.07 ZM 558.36 445.99 C557.89,446.43 553.34,447.12 548.25,447.51 L 539.00 448.21 L 539.00 435.27 L 548.75 434.76 C555.41,434.40 558.75,434.60 559.29,435.37 C560.27,436.75 559.55,444.86 558.36,445.99 ZM 581.36 444.36 C578.81,444.71 574.53,445.00 571.86,445.00 L 567.00 445.00 L 567.00 439.52 L 567.00 439.26 C567.00,436.86 567.00,435.44 567.69,434.55 C568.72,433.23 571.31,433.11 577.75,432.73 L 584.01 432.37 L 585.00 435.94 C586.89,442.75 586.50,443.66 581.36,444.36 ZM 624.83 439.35 C619.16,440.87 618.30,440.33 617.58,434.85 C617.20,432.02 617.25,429.36 617.70,428.94 C618.67,428.00 636.01,426.16 636.41,426.95 C636.56,427.25 636.42,429.94 636.09,432.92 C635.43,438.95 633.64,440.50 631.85,436.58 C630.39,433.37 629.21,433.30 628.05,436.36 C627.56,437.66 626.11,439.01 624.83,439.35 ZM 604.88 442.38 C603.16,442.72 599.83,443.00 597.49,443.00 C592.63,443.00 591.61,441.29 592.64,434.86 C593.16,431.61 593.60,431.16 596.86,430.62 C598.86,430.29 602.19,430.02 604.25,430.01 L 608.00 430.00 L 608.00 435.88 C608.00,441.65 607.95,441.76 604.88,442.38 ZM 479.92 275.25 C477.81,278.87 477.00,276.77 477.01,267.75 C477.03,256.59 477.61,254.00 480.12,254.00 C481.80,254.00 482.00,254.83 482.01,261.75 C482.02,266.01 482.30,271.19 482.64,273.25 C483.05,275.74 482.88,277.00 482.13,277.00 C481.51,277.00 480.99,276.21 480.97,275.25 C480.94,273.58 480.89,273.58 479.92,275.25 ZM 331.00 394.43 C331.00,396.41 330.04,396.41 327.22,394.44 C325.73,393.40 325.00,393.27 325.00,394.07 C325.00,394.96 324.65,394.95 323.54,394.04 C322.74,393.37 321.72,393.05 321.28,393.33 C320.84,393.60 319.36,393.16 317.99,392.34 C316.62,391.53 316.27,391.10 317.22,391.39 C318.16,391.68 319.14,391.58 319.40,391.17 C319.65,390.76 318.70,390.33 317.28,390.21 C314.31,389.97 311.77,388.18 312.56,386.90 C312.86,386.42 312.45,386.27 311.65,386.58 C310.86,386.89 309.96,386.75 309.67,386.28 C309.38,385.81 310.19,385.34 311.46,385.23 C313.03,385.10 313.95,385.68 314.30,387.02 C314.58,388.11 315.42,388.99 316.16,388.98 C317.27,388.97 317.27,388.82 316.14,388.11 C313.70,386.56 316.57,386.07 319.42,387.54 C320.98,388.35 323.37,388.73 324.85,388.41 C326.91,387.97 327.16,388.08 326.00,388.90 C324.71,389.82 324.76,389.97 326.32,389.98 C328.56,390.00 331.00,392.32 331.00,394.43 ZM 470.63 353.75 C471.21,355.91 470.97,356.00 465.04,356.00 L 458.84 356.00 L 462.42 351.82 C464.39,349.52 466.00,347.31 466.00,346.91 C466.00,346.51 466.90,346.42 468.00,346.71 C469.20,347.03 470.01,348.08 470.01,349.37 C470.02,350.54 470.30,352.51 470.63,353.75 ZM 480.39 446.42 C480.06,447.29 480.24,448.00 480.79,448.00 C481.34,448.00 482.06,447.29 482.39,446.42 C483.15,444.44 482.97,431.91 482.03,422.00 C481.42,415.57 481.30,416.67 481.16,429.67 C481.07,438.01 480.73,445.55 480.39,446.42 ZM 488.28 155.17 C500.15,161.19 503.16,161.39 492.00,155.42 C487.33,152.92 482.49,150.21 481.25,149.41 C479.53,148.30 479.01,148.25 479.03,149.23 C479.05,149.93 483.21,152.60 488.28,155.17 ZM 373.45 507.13 C374.03,507.66 373.83,507.95 372.95,507.86 C366.12,507.22 357.21,504.10 359.02,502.99 C360.26,502.22 371.66,505.49 373.45,507.13 ZM 394.45 512.17 C395.45,513.05 390.87,513.12 387.57,512.28 C385.15,511.66 382.31,509.00 384.06,509.00 C386.00,509.00 393.41,511.26 394.45,512.17 ZM 402.00 441.05 C402.00,442.18 400.62,442.14 396.25,440.88 C393.43,440.07 391.62,437.99 393.75,438.01 C396.01,438.02 402.00,440.23 402.00,441.05 ZM 91.00 676.00 C91.00,678.20 90.79,680.00 90.54,680.00 C89.40,680.00 88.16,676.12 88.67,674.16 C89.60,670.61 91.00,671.71 91.00,676.00 ZM 467.55 272.25 C466.76,273.76 466.51,275.00 466.98,275.00 C468.07,275.00 470.41,268.08 469.60,267.27 C469.27,266.94 469.00,267.30 468.99,268.08 C468.99,268.86 468.34,270.74 467.55,272.25 ZM 449.27 276.31 C448.30,276.56 448.85,276.78 450.50,276.81 C452.15,276.83 452.95,276.62 452.27,276.34 C451.59,276.07 450.24,276.05 449.27,276.31 Z" fill="rgb(16,118,83)"/>
<path d="M 880.00 880.00 L 0.00 880.00 L 208.75 879.83 C322.22,879.74 413.54,879.52 413.54,879.34 C413.54,879.34 413.53,879.34 413.50,879.33 C376.34,876.27 354.82,872.74 326.00,864.98 C270.64,850.08 219.81,825.14 173.61,790.20 C160.98,780.64 152.50,773.41 137.30,759.25 C126.69,749.36 112.58,734.44 115.52,736.22 C116.43,736.77 122.56,722.62 127.97,707.50 C128.96,704.75 131.45,697.78 133.52,692.00 C151.05,642.91 188.61,600.07 234.50,576.84 C250.98,568.49 274.70,560.00 281.55,560.00 C283.31,560.00 286.35,559.33 288.30,558.52 C292.16,556.91 304.63,555.20 318.00,554.45 C322.67,554.18 327.53,553.74 328.78,553.46 C332.38,552.65 360.23,554.88 374.00,557.08 C402.79,561.67 423.23,568.13 475.00,589.01 C525.33,609.30 557.09,616.08 601.93,616.10 C644.21,616.11 682.51,606.91 716.19,588.62 C728.97,581.69 734.35,578.65 735.00,578.00 C735.28,577.72 738.42,575.51 742.00,573.08 C757.27,562.71 773.54,547.77 786.74,532.00 C792.89,524.66 805.72,506.70 817.83,488.50 C841.58,452.80 849.67,442.27 866.42,425.19 C878.24,413.15 878.51,412.94 879.13,415.69 C879.13,415.70 879.14,415.71 879.14,415.71 C879.48,415.71 879.82,323.39 879.88,209.25 L 880.00 0.00 ZM 477.59 878.48 C465.65,879.57 495.35,879.78 671.75,879.88 L 880.00 880.00 L 879.86 671.25 C879.79,559.71 879.38,471.99 878.95,471.99 C878.94,471.99 878.93,472.07 878.92,472.22 C869.99,580.27 826.16,675.82 751.02,751.04 C677.44,824.69 582.47,868.96 477.59,878.48 Z" fill="rgb(186,25,32)"/>
<path d="M 0.14 670.75 C0.22,549.49 0.63,465.92 1.12,472.00 C7.34,550.02 31.86,621.09 74.70,685.30 C78.30,690.68 81.47,694.87 81.74,694.59 C82.02,694.32 82.83,691.71 83.55,688.80 C97.13,633.96 110.08,604.30 136.71,567.00 C143.30,557.78 163.07,537.94 174.00,529.59 C187.85,519.01 194.95,514.50 209.50,507.05 C238.47,492.21 271.22,485.02 304.00,486.32 C333.96,487.50 352.90,491.38 407.00,507.44 C434.24,515.53 462.59,522.51 478.11,524.95 C508.08,529.67 515.72,530.33 540.00,530.32 C564.93,530.31 576.61,529.40 596.83,525.90 C634.84,519.31 673.18,503.54 699.92,483.47 C726.31,463.67 736.53,452.35 778.47,396.46 C785.34,387.31 808.40,361.90 816.62,354.43 C829.34,342.87 848.48,328.31 859.30,321.97 C863.87,319.29 863.94,319.98 856.79,299.00 C817.83,184.64 733.21,90.68 624.00,40.52 C574.74,17.89 528.66,6.03 472.50,1.53 C458.86,0.44 487.67,0.23 668.25,0.12 L 880.00 0.00 L 879.88 209.25 C879.82,324.34 879.48,417.24 879.13,415.69 C878.51,412.94 878.24,413.15 866.42,425.19 C849.67,442.27 841.58,452.80 817.83,488.50 C805.72,506.70 792.89,524.66 786.74,532.00 C773.54,547.77 757.27,562.71 742.00,573.08 C738.42,575.51 735.28,577.72 735.00,578.00 C734.35,578.65 728.97,581.69 716.19,588.62 C682.51,606.91 644.21,616.11 601.93,616.10 C557.09,616.08 525.33,609.30 475.00,589.01 C423.23,568.13 402.79,561.67 374.00,557.08 C360.23,554.88 332.38,552.65 328.78,553.46 C327.53,553.74 322.67,554.18 318.00,554.45 C304.63,555.20 292.16,556.91 288.30,558.52 C286.35,559.33 283.31,560.00 281.55,560.00 C274.70,560.00 250.98,568.49 234.50,576.84 C188.61,600.07 151.05,642.91 133.52,692.00 C131.45,697.78 128.96,704.75 127.97,707.50 C122.56,722.62 116.43,736.77 115.52,736.22 C112.58,734.44 126.69,749.36 137.30,759.25 C152.50,773.41 160.98,780.64 173.61,790.20 C219.81,825.14 270.64,850.08 326.00,864.98 C354.82,872.74 376.34,876.27 413.50,879.33 C415.70,879.52 323.56,879.74 208.75,879.83 L 0.00 880.00 L 0.14 670.75 ZM 91.00 676.00 C91.00,671.71 89.60,670.61 88.67,674.16 C88.16,676.12 89.40,680.00 90.54,680.00 C90.79,680.00 91.00,678.20 91.00,676.00 ZM 573.44 541.95 C586.92,540.95 599.40,539.18 609.00,536.92 C618.55,534.66 638.62,528.80 641.00,527.56 C642.38,526.85 644.75,525.97 646.27,525.61 C647.80,525.25 655.11,522.04 662.51,518.47 C669.92,514.91 676.38,512.00 676.87,512.00 C677.36,512.00 678.34,511.30 679.05,510.44 C679.76,509.59 681.80,508.27 683.59,507.53 C685.37,506.78 688.07,504.78 689.58,503.09 C691.09,501.39 692.82,500.00 693.42,499.99 C695.21,499.97 702.99,493.33 702.22,492.48 C701.82,492.04 702.06,492.00 702.75,492.40 C703.90,493.06 709.53,488.20 708.65,487.31 C708.09,486.75 701.76,490.26 700.02,492.09 C699.18,492.97 697.38,494.28 696.00,495.00 C694.62,495.73 692.91,497.15 692.19,498.16 C691.47,499.17 690.52,500.00 690.07,500.00 C689.62,500.00 684.46,502.72 678.59,506.04 C672.73,509.36 667.54,511.83 667.05,511.53 C666.57,511.23 666.02,511.38 665.84,511.87 C665.15,513.67 645.41,521.49 631.50,525.47 C628.20,526.42 623.70,527.78 621.50,528.50 C617.57,529.78 604.43,532.95 600.50,533.56 C561.15,539.67 525.22,540.54 494.58,536.14 C486.96,535.05 484.24,535.29 486.75,536.84 C488.59,537.98 510.12,540.86 524.00,541.83 C542.29,543.10 557.56,543.14 573.44,541.95 ZM 196.94 526.59 C207.34,520.71 214.24,517.45 223.43,514.07 C226.70,512.87 229.85,511.59 230.43,511.21 C232.03,510.20 243.49,507.08 252.00,505.34 C256.12,504.49 262.42,503.17 266.00,502.41 C282.13,498.95 306.62,498.45 331.50,501.07 C350.35,503.06 352.86,503.18 354.69,502.12 C356.40,501.12 356.39,501.05 354.50,500.92 C352.30,500.75 352.24,500.74 346.50,499.61 C326.67,495.69 320.96,494.87 310.50,494.48 C297.44,493.99 272.77,495.31 264.00,496.96 C260.98,497.53 256.02,498.40 253.00,498.91 C249.98,499.41 244.84,500.77 241.59,501.91 C238.35,503.06 235.16,504.00 234.52,504.00 C233.88,504.00 226.96,507.15 219.14,511.00 C211.32,514.85 204.60,518.00 204.20,518.00 C203.80,518.00 201.23,519.51 198.49,521.36 C195.74,523.20 192.60,525.02 191.50,525.41 C189.01,526.27 184.33,532.00 186.11,532.00 C186.80,532.00 191.68,529.57 196.94,526.59 ZM 394.45 512.17 C393.41,511.26 386.00,509.00 384.06,509.00 C382.31,509.00 385.15,511.66 387.57,512.28 C390.87,513.12 395.45,513.05 394.45,512.17 ZM 373.45 507.13 C371.66,505.49 360.26,502.22 359.02,502.99 C357.21,504.10 366.12,507.22 372.95,507.86 C373.83,507.95 374.03,507.66 373.45,507.13 ZM 821.54 362.07 C821.30,361.68 822.55,360.53 824.30,359.50 C826.06,358.47 830.35,355.13 833.82,352.07 C837.30,349.01 841.86,345.61 843.95,344.51 C847.51,342.62 853.19,339.15 860.36,334.47 C864.19,331.97 865.91,327.80 864.04,325.55 C863.05,324.36 862.41,324.25 861.38,325.10 C860.63,325.72 860.31,326.70 860.67,327.27 C861.03,327.86 860.83,328.01 860.18,327.61 C858.77,326.74 852.74,329.77 853.48,330.97 C853.79,331.46 853.51,332.19 852.86,332.59 C852.13,333.04 851.96,332.88 852.40,332.15 C853.62,330.19 851.94,330.87 848.64,333.68 C846.58,335.44 846.19,336.11 847.50,335.62 C848.66,335.19 847.78,336.48 845.39,338.69 C839.34,344.30 836.70,346.10 835.28,345.56 C834.59,345.29 834.13,345.55 834.26,346.12 C834.39,346.70 832.93,348.04 831.02,349.09 C829.10,350.14 827.88,351.00 828.32,351.00 C828.75,351.00 827.86,352.15 826.34,353.56 C824.04,355.69 823.82,356.28 825.04,357.10 C826.30,357.95 826.29,358.04 824.97,357.79 C823.26,357.47 818.00,361.24 818.00,362.80 C818.00,363.36 818.89,363.58 819.99,363.29 C821.08,363.01 821.78,362.46 821.54,362.07 ZM 477.59 878.48 C582.47,868.96 677.44,824.69 751.02,751.04 C826.16,675.82 869.99,580.27 878.92,472.22 C879.36,466.87 879.78,556.44 879.86,671.25 L 880.00 880.00 L 671.75 879.88 C495.35,879.78 465.65,879.57 477.59,878.48 ZM 449.00 482.91 C423.02,481.97 388.93,479.40 376.31,477.43 C371.58,476.69 367.44,472.03 348.50,446.12 C342.55,437.98 342.03,437.56 328.50,429.94 C320.52,425.45 270.30,398.60 262.75,394.79 C254.92,390.83 254.51,390.43 255.61,387.58 C256.45,385.39 258.26,385.59 264.00,388.50 C266.71,389.88 269.34,391.00 269.84,391.00 C270.34,391.00 275.13,385.75 280.49,379.34 C289.94,368.01 290.16,367.63 288.23,366.09 C287.14,365.21 282.93,361.75 278.87,358.39 C246.87,331.89 208.18,316.71 168.93,315.26 C112.44,313.18 65.09,332.80 9.88,381.18 L 3.25 386.98 L 2.11 399.74 C1.48,406.76 0.83,414.52 0.66,417.00 C0.49,419.48 0.27,326.66 0.17,210.75 L 0.00 0.00 L 211.25 0.17 C327.44,0.27 420.48,0.49 418.00,0.66 C349.30,5.37 296.33,19.63 239.00,48.84 C187.78,74.93 137.37,115.53 104.28,157.34 C101.16,161.28 98.32,164.73 97.98,165.00 C95.38,167.07 76.03,194.47 68.31,207.00 C51.46,234.38 31.40,275.56 25.51,294.88 C24.67,297.62 24.14,297.87 35.00,290.46 C74.82,263.29 114.65,251.55 161.00,253.34 C198.19,254.77 229.88,264.50 261.09,284.06 C279.47,295.58 299.05,313.15 310.62,328.53 C313.74,332.67 316.40,335.93 316.54,335.78 C317.00,335.29 337.16,309.70 349.16,294.39 C392.06,239.64 407.47,220.08 410.05,217.09 C411.67,215.22 413.00,213.62 413.00,213.54 C413.00,213.47 411.42,213.59 409.50,213.81 C406.79,214.13 406.00,213.86 406.00,212.62 C406.00,211.51 407.30,210.82 410.25,210.37 C413.57,209.85 415.45,208.70 418.84,205.10 C426.05,197.46 427.99,193.61 430.07,182.87 C432.57,170.00 432.61,166.54 430.25,167.51 C426.60,169.01 425.00,169.20 425.00,168.12 C425.00,167.50 425.57,167.00 426.27,167.00 C426.96,167.00 429.55,165.87 432.02,164.49 C440.61,159.68 455.56,152.36 463.74,148.94 C471.15,145.85 471.98,145.23 471.99,142.82 C472.00,139.89 475.37,137.97 477.23,139.83 C477.83,140.43 478.20,145.31 478.12,151.43 L 477.98 162.00 L 488.79 162.00 C494.74,162.00 500.05,161.55 500.60,161.00 C501.27,160.33 503.58,161.20 507.55,163.64 C510.82,165.65 516.42,168.94 520.00,170.95 C523.58,172.95 527.74,175.42 529.25,176.41 L 532.00 178.23 L 532.00 161.70 C532.00,152.60 532.27,144.45 532.61,143.58 C532.94,142.71 534.24,142.00 535.49,142.00 C538.42,142.00 538.61,143.33 538.91,165.64 L 539.14 183.12 L 550.76 201.81 C562.25,220.30 567.07,227.87 582.55,251.78 C586.92,258.54 592.21,266.83 594.30,270.22 C599.95,279.35 633.13,327.91 641.99,340.00 C692.13,408.41 695.75,413.00 699.57,413.00 C702.32,413.00 703.35,414.33 702.55,416.85 C701.95,418.73 697.75,419.40 656.00,424.29 L 645.50 425.52 L 645.20 431.31 L 644.90 437.11 L 648.70 436.49 C650.79,436.15 653.74,435.63 655.25,435.35 C656.96,435.04 658.00,435.28 658.00,436.00 C658.00,436.63 654.15,441.95 649.45,447.82 C644.75,453.69 639.72,460.52 638.28,463.00 C636.84,465.47 633.95,469.82 631.86,472.66 L 628.07 477.82 L 620.78 478.43 C564.57,483.09 500.26,484.77 449.00,482.91 ZM 471.00 430.89 L 471.00 411.78 L 452.25 412.25 C439.68,412.56 430.91,413.29 425.64,414.45 C416.52,416.47 403.19,421.63 394.27,426.61 C389.11,429.48 388.19,430.38 388.94,431.79 C389.44,432.73 390.08,434.23 390.35,435.12 C390.66,436.17 392.50,437.00 395.49,437.45 C398.18,437.85 401.05,439.05 402.29,440.29 C403.48,441.48 405.36,442.59 406.47,442.76 C407.59,442.93 412.77,443.76 418.00,444.61 C435.56,447.45 455.44,449.77 463.25,449.89 L 471.00 450.00 L 471.00 430.89 ZM 523.00 449.12 L 530.50 448.50 L 530.80 444.42 C531.08,440.62 530.65,439.86 524.41,433.12 C518.67,426.93 516.23,425.17 507.32,420.82 C501.60,418.03 496.67,416.00 496.35,416.31 C496.04,416.63 496.30,423.72 496.94,432.06 C497.58,440.41 497.96,447.34 497.80,447.48 C497.63,447.61 496.22,448.02 494.67,448.40 C492.81,448.85 492.05,448.72 492.48,448.04 C492.83,447.47 493.72,447.00 494.45,447.00 C496.63,447.00 496.76,445.18 495.60,430.05 L 494.50 415.59 L 488.00 414.36 C476.57,412.19 477.59,410.55 478.32,429.86 C478.67,439.14 479.24,447.46 479.59,448.36 C480.14,449.80 482.37,449.98 497.86,449.87 C507.56,449.80 518.88,449.46 523.00,449.12 ZM 558.36 445.99 C559.55,444.86 560.27,436.75 559.29,435.37 C558.75,434.60 555.41,434.40 548.75,434.76 L 539.00 435.27 L 539.00 441.74 L 539.00 448.21 L 548.25 447.51 C553.34,447.12 557.89,446.43 558.36,445.99 ZM 581.36 444.36 C586.50,443.66 586.89,442.75 585.00,435.94 L 584.01 432.37 L 577.75 432.73 C566.85,433.37 567.00,433.27 567.00,439.52 L 567.00 445.00 L 571.86 445.00 C574.53,445.00 578.81,444.71 581.36,444.36 ZM 604.88 442.38 C607.95,441.76 608.00,441.65 608.00,435.88 L 608.00 430.00 L 604.25 430.01 C602.19,430.02 598.86,430.29 596.86,430.62 C593.60,431.16 593.16,431.61 592.64,434.86 C591.61,441.29 592.63,443.00 597.49,443.00 C599.83,443.00 603.16,442.72 604.88,442.38 ZM 402.00 441.05 C402.00,440.23 396.01,438.02 393.75,438.01 C391.62,437.99 393.43,440.07 396.25,440.88 C400.62,442.14 402.00,442.18 402.00,441.05 ZM 624.83 439.35 C626.11,439.01 627.56,437.66 628.05,436.36 C629.21,433.30 630.39,433.37 631.85,436.58 C633.64,440.50 635.43,438.95 636.09,432.92 C636.42,429.94 636.56,427.25 636.41,426.95 C636.01,426.16 618.67,428.00 617.70,428.94 C617.25,429.36 617.20,432.02 617.58,434.85 C618.30,440.33 619.16,440.87 624.83,439.35 ZM 389.00 436.69 C389.00,435.42 388.40,433.57 387.68,432.57 C386.53,431.00 386.07,430.94 384.22,432.09 C383.05,432.83 381.79,433.13 381.43,432.76 C381.06,432.39 381.60,428.81 382.63,424.80 C385.22,414.67 385.23,383.67 382.64,374.00 C379.23,361.26 379.10,361.00 376.07,361.00 L 373.30 361.00 L 372.67 369.81 C372.33,374.65 372.25,380.84 372.50,383.56 C372.74,386.28 373.16,393.80 373.44,400.28 L 373.93 412.06 L 369.21 408.09 C361.93,401.95 336.02,388.65 334.44,390.23 C332.90,391.77 348.79,425.04 352.22,427.45 C353.47,428.33 358.55,430.36 363.50,431.95 C368.45,433.55 373.29,435.16 374.25,435.53 C375.61,436.06 376.01,435.69 376.04,433.86 C376.08,431.57 376.13,431.59 377.61,434.32 C378.86,436.62 379.40,436.91 380.59,435.93 C381.77,434.94 381.93,435.01 381.44,436.29 C380.98,437.49 381.64,437.96 384.17,438.27 C386.00,438.50 387.84,438.75 388.25,438.84 C388.66,438.93 389.00,437.96 389.00,436.69 ZM 531.35 400.00 C531.87,368.71 531.78,364.87 530.51,367.64 C527.90,373.38 525.00,390.50 525.01,400.16 C525.01,411.91 528.93,437.57 530.45,435.84 C530.62,435.65 531.02,419.52 531.35,400.00 ZM 345.95 425.93 C342.67,421.32 334.13,412.02 319.57,397.19 L 306.50 383.89 L 299.50 384.49 C284.36,385.80 277.54,387.14 275.25,389.26 C274.01,390.41 273.00,391.67 273.00,392.07 C273.00,392.47 284.77,398.58 299.15,405.65 C313.53,412.72 329.85,420.84 335.40,423.71 C347.31,429.86 349.00,430.21 345.95,425.93 ZM 575.89 426.50 C586.34,425.59 591.54,424.74 592.09,423.85 C592.60,423.03 592.35,422.22 591.46,421.72 C587.88,419.71 569.37,417.39 542.75,415.61 L 538.00 415.29 L 538.00 422.28 L 538.00 429.26 L 549.25 428.54 C555.44,428.15 567.43,427.23 575.89,426.50 ZM 622.50 421.98 C639.03,420.52 688.86,415.10 692.36,414.38 L 695.21 413.79 L 690.92 409.42 C684.20,402.57 670.16,397.22 637.50,389.06 C622.39,385.28 582.19,377.48 581.48,378.18 C581.18,378.49 590.00,410.14 593.11,419.87 L 594.50 424.24 L 602.50 423.64 C606.90,423.32 615.90,422.57 622.50,421.98 ZM 331.00 394.43 C331.00,392.32 328.56,390.00 326.32,389.98 C324.76,389.97 324.71,389.82 326.00,388.90 C327.16,388.08 326.91,387.97 324.85,388.41 C323.37,388.73 320.98,388.35 319.42,387.54 C316.57,386.07 313.70,386.56 316.14,388.11 C317.27,388.82 317.27,388.97 316.16,388.98 C315.42,388.99 314.58,388.11 314.30,387.02 C313.95,385.68 313.03,385.10 311.46,385.23 C310.19,385.34 309.38,385.81 309.67,386.28 C309.96,386.75 310.86,386.89 311.65,386.58 C312.45,386.27 312.86,386.42 312.56,386.90 C311.77,388.18 314.31,389.97 317.28,390.21 C318.70,390.33 319.65,390.76 319.40,391.17 C319.14,391.58 318.16,391.68 317.22,391.39 C316.27,391.10 316.62,391.53 317.99,392.34 C319.36,393.16 320.84,393.60 321.28,393.33 C321.72,393.05 322.74,393.37 323.54,394.04 C324.65,394.95 325.00,394.96 325.00,394.07 C325.00,393.27 325.73,393.40 327.22,394.44 C330.04,396.41 331.00,396.41 331.00,394.43 ZM 576.00 345.90 C573.25,307.67 558.59,241.26 543.81,200.00 C542.14,195.32 540.54,190.48 540.26,189.24 C539.99,187.99 539.48,186.79 539.13,186.58 C538.18,185.99 539.02,239.32 539.98,240.49 C540.43,241.04 544.23,252.52 548.43,266.00 C552.63,279.48 557.61,295.45 559.49,301.50 C563.56,314.51 572.17,344.67 574.57,354.29 C575.50,358.02 576.44,360.90 576.65,360.68 C576.87,360.47 576.57,353.81 576.00,345.90 ZM 377.74 354.75 C379.46,352.96 383.35,346.01 386.38,339.29 C394.94,320.33 399.00,305.08 399.00,291.91 C399.00,282.74 397.49,280.63 391.34,281.21 C387.75,281.56 387.42,281.87 386.22,286.04 C385.51,288.49 384.51,291.85 384.00,293.50 C379.62,307.55 371.64,358.00 373.80,358.00 C374.24,358.00 376.02,356.54 377.74,354.75 ZM 434.29 356.66 L 452.09 356.32 L 456.12 352.41 C458.34,350.26 462.01,345.70 464.27,342.28 C466.54,338.85 468.55,336.22 468.75,336.42 C469.31,336.98 462.56,347.04 458.62,351.50 C456.65,353.73 455.58,355.67 456.21,355.89 C457.52,356.34 461.95,351.32 465.65,345.20 C467.07,342.84 468.50,341.16 468.80,341.47 C469.11,341.78 468.83,342.57 468.18,343.22 C466.53,344.87 466.71,346.00 468.61,346.00 C469.87,346.00 470.12,345.27 469.75,342.75 C469.19,338.92 470.82,334.72 472.61,335.41 C473.31,335.67 474.01,335.48 474.19,334.98 C474.37,334.43 475.08,334.43 475.96,334.97 C477.04,335.64 477.53,338.53 477.83,345.94 C478.22,355.72 478.30,356.00 480.58,356.00 C482.90,356.00 482.93,355.87 482.50,347.75 L 482.07 339.50 L 483.46 347.50 C484.22,351.90 484.88,355.61 484.92,355.75 C484.97,355.89 485.51,356.00 486.13,356.00 C486.92,356.00 487.10,353.27 486.73,346.75 L 486.20 337.50 L 487.35 346.50 L 488.50 355.50 L 493.00 355.84 C500.68,356.42 532.00,354.84 532.00,353.87 C532.00,351.68 525.29,345.87 519.63,343.15 C503.58,335.45 488.78,332.08 463.92,330.47 C444.87,329.24 417.60,333.10 404.52,338.89 C395.08,343.06 377.44,355.28 378.46,356.93 C378.71,357.33 387.37,357.51 397.71,357.33 C408.04,357.14 424.51,356.84 434.29,356.66 ZM 470.63 353.75 C470.30,352.51 470.02,350.54 470.01,349.37 C470.01,348.08 469.20,347.03 468.00,346.71 C466.90,346.42 466.00,346.51 466.00,346.91 C466.00,347.31 464.39,349.52 462.42,351.82 L 458.84 356.00 L 465.04 356.00 C470.97,356.00 471.21,355.91 470.63,353.75 ZM 531.77 299.75 L 531.50 283.50 L 529.30 290.50 C523.54,308.88 523.55,328.09 529.34,342.94 L 531.50 348.50 L 531.77 332.25 C531.93,323.31 531.93,308.69 531.77,299.75 ZM 65.56 285.53 C66.63,284.72 68.17,284.05 68.98,284.03 C69.80,284.01 74.30,282.25 78.98,280.12 C87.35,276.31 108.68,270.57 118.50,269.50 C121.25,269.20 126.88,268.45 131.00,267.84 C139.93,266.53 177.32,265.91 180.96,267.03 C182.36,267.46 188.23,268.34 194.00,268.99 C199.77,269.64 205.40,270.50 206.50,270.91 C207.60,271.32 209.62,271.37 211.00,271.03 C213.12,270.50 212.58,270.15 207.50,268.73 C204.20,267.81 198.57,266.61 195.00,266.06 C191.43,265.52 184.00,264.34 178.50,263.45 C166.05,261.42 128.44,261.99 118.00,264.37 C99.54,268.56 89.56,271.49 86.41,273.63 C84.48,274.93 82.06,276.00 81.01,276.00 C79.97,276.00 78.86,276.42 78.55,276.92 C78.23,277.43 76.52,278.15 74.74,278.53 C71.47,279.22 66.51,281.84 62.12,285.18 C59.95,286.83 59.91,287.00 61.67,287.00 C62.74,287.00 64.49,286.34 65.56,285.53 ZM 392.02 279.00 C394.62,279.00 402.28,269.36 406.73,260.50 C415.39,243.27 421.53,217.00 416.89,217.00 C416.40,217.00 416.00,216.32 416.00,215.50 C416.00,212.52 414.22,214.11 411.24,219.75 C406.32,229.08 388.14,275.76 388.03,279.36 C388.01,279.83 388.71,279.94 389.58,279.61 C390.45,279.27 391.55,279.00 392.02,279.00 ZM 462.50 278.00 C462.84,277.44 462.09,276.99 460.81,276.98 C459.54,276.98 457.83,276.53 457.00,276.00 C455.87,275.27 456.34,275.03 458.92,275.02 C460.80,275.01 463.24,274.21 464.34,273.25 C465.44,272.29 466.00,272.08 465.59,272.79 C464.59,274.49 466.62,276.88 468.79,276.56 C470.21,276.35 470.53,275.05 470.66,268.90 C470.74,264.83 471.07,259.59 471.39,257.25 L 471.96 253.00 L 462.73 253.02 C441.06,253.07 424.81,258.09 405.85,270.62 C394.22,278.31 394.34,278.36 422.23,277.59 C436.86,277.19 447.69,277.30 449.50,277.88 C453.55,279.16 461.73,279.24 462.50,278.00 ZM 479.92 275.25 C480.89,273.58 480.94,273.58 480.97,275.25 C480.99,276.21 481.51,277.00 482.13,277.00 C482.88,277.00 483.05,275.74 482.64,273.25 C482.30,271.19 482.02,266.01 482.01,261.75 C482.00,254.83 481.80,254.00 480.12,254.00 C477.61,254.00 477.03,256.59 477.01,267.75 C477.00,276.77 477.81,278.87 479.92,275.25 ZM 509.65 276.00 L 532.14 276.00 L 531.82 273.79 C530.93,267.65 507.63,257.47 487.61,254.46 L 483.00 253.77 L 483.00 260.75 C483.00,271.42 484.00,277.21 485.72,276.55 C486.52,276.25 497.28,276.00 509.65,276.00 ZM 531.78 224.75 L 531.50 210.50 L 528.90 216.00 C524.79,224.72 522.62,234.14 523.34,240.22 C524.18,247.27 526.52,256.03 529.26,262.34 L 531.50 267.50 L 531.78 253.25 C531.93,245.41 531.93,232.59 531.78,224.75 ZM 450.22 209.77 C461.62,209.56 471.13,209.19 471.36,208.95 C472.14,208.12 472.54,193.17 471.78,193.64 C471.36,193.89 471.29,193.41 471.62,192.55 C472.11,191.28 471.32,191.00 467.23,191.00 C456.26,191.00 432.45,196.51 426.47,200.43 C425.29,201.20 422.48,204.03 420.23,206.73 L 416.13 211.62 L 422.81 210.88 C426.49,210.48 438.82,209.97 450.22,209.77 ZM 507.81 208.12 L 515.11 207.50 L 510.54 203.69 C504.26,198.45 497.03,195.35 487.03,193.62 C479.19,192.26 474.04,192.67 476.87,194.42 C477.53,194.83 478.00,197.98 478.00,202.06 L 478.00 209.00 L 489.25 208.87 C495.44,208.80 503.79,208.46 507.81,208.12 ZM 531.64 206.70 C531.78,206.55 531.97,200.73 532.06,193.75 L 532.22 181.06 L 529.36 178.71 C527.79,177.42 522.90,174.23 518.50,171.61 C514.10,169.00 509.73,166.35 508.80,165.72 C506.08,163.89 505.50,165.58 505.50,175.34 C505.50,186.39 508.30,196.02 513.66,203.38 L 517.21 208.27 L 524.30 207.61 C528.19,207.25 531.50,206.84 531.64,206.70 ZM 456.75 163.43 L 472.00 162.74 L 472.00 154.95 L 472.00 147.16 L 463.35 150.65 C453.40,154.66 435.00,163.73 435.00,164.62 C435.00,164.95 436.46,164.97 438.25,164.67 C440.04,164.36 448.36,163.80 456.75,163.43 ZM 488.28 155.17 C483.21,152.60 479.05,149.93 479.03,149.23 C479.01,148.25 479.53,148.30 481.25,149.41 C482.49,150.21 487.33,152.92 492.00,155.42 C503.16,161.39 500.15,161.19 488.28,155.17 ZM 480.39 446.42 C480.73,445.55 481.07,438.01 481.16,429.67 C481.30,416.67 481.42,415.57 482.03,422.00 C482.97,431.91 483.15,444.44 482.39,446.42 C482.06,447.29 481.34,448.00 480.79,448.00 C480.24,448.00 480.06,447.29 480.39,446.42 ZM 449.27 276.31 C450.24,276.05 451.59,276.07 452.27,276.34 C452.95,276.62 452.15,276.83 450.50,276.81 C448.85,276.78 448.30,276.56 449.27,276.31 ZM 467.55 272.25 C468.34,270.74 468.99,268.86 468.99,268.08 C469.00,267.30 469.27,266.94 469.60,267.27 C470.41,268.08 468.07,275.00 466.98,275.00 C466.51,275.00 466.76,273.76 467.55,272.25 Z" fill="rgb(240,242,241)"/>
</g>
</svg>
