<svg xmlns="http://www.w3.org/2000/svg" width="256" height="256" viewBox="0 0 256 256">
<!-- SVG created with Arrow, by QuiverAI (https://quiver.ai) -->
  <path d="m255.9 0.06h-255.9v255.6h255.9v-255.6z" fill="#F1F5F5"/>
  <path d="m5.18 85.1c14.98-43.02 57.56-85.1 115.6-85.1h12.38c51.57 0 101.1 36.01 120.1 92.02l-0.13 0.42c-13.22 7.53-21 16.5-30.07 30.08-14.84 23.64-36.64 31.94-60.41 32.76-26.5 0.96-34.26-7.33-59.69-12.57-9.24-1.88-17.4-2.84-26.14-1-28.21 6.1-46.79 24.54-55.4 58.01l-1.1 3.2c-14.85-21.11-20.57-40.3-20.38-63.51l0.14-28.29 0.28-0.5c13.5-13.58 25.04-19.33 43.31-19.71 14.85-0.28 27.36 4.96 39.45 14.8l-7.16 8.19-2.36-0.96-0.56 0.47 0.56 1 23.99 12.68 10.81 11.76c8.29 2.81 40.15 2.76 53.51 1.76l20.94-1 8.74-12.58-0.69-0.93-3.35 0.43-0.43-2.36 17.51-3.36-0.37-0.97-1.88-0.5-46.01-68.71v-10.81l-1.31-0.5-0.08 12.58-16.98-11.77v-1.4l-0.82-0.28-0.66 1.87-12.87 6.19-0.5 0.32 1.32 0.6c0.28 4.75-1.82 8.72-6.83 11.63l0.63 1-26.64 36.55c-14.07-15.97-30.58-24.75-49.03-24.93-14.62-0.09-24.39 4.03-37.48 13.42z" fill="#0C7F59"/>
  <path d="m255.8 120.7c-8.98 7.59-14.67 20.16-22.37 30.97-15.57 19.52-35.51 28.17-57.75 28.45-28.39 0.38-36.68-10.43-62.64-16.17-8.43-1.88-15.06-2.38-23.8-0.95-26.54 3.35-43.97 19.81-54.79 48.1l-3.06 3.77c22.03 25.16 56.13 40.97 84.53 40.97h23c61.9 0 116.9-59.31 116.9-113.8v-21.34z" fill="#B90B1B"/>
  <path d="m14.45 82.69c9.67-8.78 28.69-11.28 45.2-6.04l1.41 1.14-1.04 0.42c-12.86-3.22-30.81-3.08-44.3 4.48h-1.27z" fill="#F0F3F3"/>
  <path d="m52.62 154.9c10.21-10.27 29.69-12.78 46.2-8.46l4.95 1.37 0.14-1c-10.81-3.77-31.94-4.59-50.37 7.99l-0.92 0.1z" fill="#F0F3F3"/>
  <path d="m141.8 156.7c17.2 3.77 44.81 0.93 62.61-13.61l2.02-2.36c-15.83 13.04-35.53 17.86-64.35 15.48l-0.28 0.49z" fill="#F0F3F3"/>
  <path d="m239.4 105.2c4.5-4.5 9.14-8.12 14.05-10.49l0.28 1.19c-3.23 1.7-9.43 6.45-13.02 9.75l-1.31-0.45z" fill="#F0F3F3"/>
  <path d="m22.68 196.9 0.56-0.66 0.82 2.28-1.38 1.41v-3.03z" fill="#F0F3F3"/>
  <path d="m78.32 113.4 8.88-1.8 12.91 12.05-21.79-10.25z" fill="#0C7F59"/>
  <path d="m90.01 112.2 3.91 0.77 4.9 9.26-8.81-10.03z" fill="#0C7F59"/>
  <path d="m108.9 104.1c2.68 3.13 2.13 14.75 1.7 20.5l2.91-1.95c6.62-4.12 14.1-3.46 23.06-3.18l18.29 1.12-0.38-13.85 0.26-0.31c1.45 2.69 0.98 10.62 0.55 15.47l16.98-0.66-2.91-11.28c10.72 1.01 23.64 3.71 32.39 8.57l-44.69-65.69 0.21 37.31-1.59-8.43c-2.08-6.4-4.76-11.65-1.51-20.69l0.42-0.68-0.28-2.9-3.33 1.03c-5.21-2.53-6.8-7.2-4.86-12.32l-8.27-1.11-12.87 2c0.14 4.87-3.09 10.83-6.83 12.15l0.96 0.76-6.03 0.76 5.6 0.08-26.94 36.07c-9.91-11.92-26.42-23.84-49.65-23.77-14.34 0.05-25.15 4.37-35.06 11.9l-0.96-0.05c14.26-11 22.7-13.65 36.95-13.65 19.85 0 37.22 10.81 48.65 25.57l27.23-35.77c-4.95 8.09-9.73 18.05-10.23 40.05l1.03 1.25-0.8 1.7z" fill="#F0F3F3"/>
  <path d="m114.5 79.43c5.88-6.37 12.53-7.31 22.68-6.72v6.03l-4.57 0.89-18.11-0.2z" fill="#0C7F59"/>
  <path d="m137.6 72.71c7.03-0.28 11.31 2 16.67 4.8v1.23h-16.87l0.2-6.03z" fill="#0C7F59"/>
  <path d="m110.6 102.2c6.34-5.89 12.03-6.35 20.64-6.35 7.48 0 15.49 1.36 22.66 5.82-4.43 1.25-8.86 1.32-15.76 1.32l-27.54-0.79z" fill="#0C7F59"/>
  <path d="m125 46.51 12.29-5.69 0.17 3.55-12.46 2.14z" fill="#0C7F59"/>
  <path d="m137.8 53.41-13.54 1.9c1.95-2.65 5.54-3.55 13.48-3.41l0.06 1.51z" fill="#0C7F59"/>
  <path d="m137.8 53.81 9.46 0.86 2.53 3.32-11.99 0.28v-4.46z" fill="#0C7F59"/>
  <path d="m157.7 56.17c2.91 5.94 10.6 31.61 10.11 47.82l-10.67-33.67 0.56-14.15z" fill="#0C7F59"/>
  <path d="m153.2 83.71c-1.48 4.07-3.18 9.2-0.49 16.19l1.12 1.21 0.14-1-0.77-16.4z" fill="#0C7F59"/>
  <path d="m135.2 97.61-2.1 2.29-0.96 3.11h3.5l-0.44-5.4z" fill="#0C7F59"/>
  <path d="m139.5 120.2 4.43 0.87 0.21 8.48-5.03 0.56 0.39-9.91z" fill="#0C7F59"/>
  <path d="m145.2 121.6c3.97 0.86 6.33 3.73 8.34 7.06l-7.77 0.79-0.57-7.85z" fill="#0C7F59"/>
  <path d="m112.1 125.4c7.33 2.41 14.72 3.91 24.23 4.68v-10.76c-8.95-0.28-15.45-0.53-23.73 5.08l-0.5 1z" fill="#0C7F59"/>
  <path d="m156.1 125.9 5.69 0.07 0.63 2.98-5.75 0.43-0.57-3.48z" fill="#0C7F59"/>
  <path d="m164.4 125.9 5.69-0.36 0.63 2.41-5.53 0.57-0.79-2.62z" fill="#0C7F59"/>
  <path d="m173.6 125.4 5.46-0.5 0.43 2.48-5.21 0.64-0.68-2.62z" fill="#0C7F59"/>
  <path d="m182 124.8 4.31-0.36 0.43 2.41-4.25 0.5-0.49-2.55z" fill="#0C7F59"/>
  <path d="m113.9 81.08-0.79-0.44c-2.78 6.44-3.51 13.97-4.01 21.44l1.53-0.28c3.96-7.71 5.84-12.73 4.53-19.73l-1.26-0.99z" fill="#0C7F59"/>
</svg>