<svg xmlns="http://www.w3.org/2000/svg" width="250" height="250" fill="none" viewBox="0 0 250 250">
<!-- SVG created with Arrow, by QuiverAI (https://quiver.ai) -->
  <path d="m97.48 38.92c23.01-1.13 36.62 9.9 45.5 22.02 14.15 20.09 9.42 47.97-23.89 66.95 17.74-14.29 24.54-35.18 19.79-52.74-6.08-18.72-18.78-33.06-41.4-36.23z" fill="url(#paint0_radial_202_2506)"/>
  <path d="m132.1 40.78c22.23 4.93 35.05 18.09 39.38 35.31 6.89 23.78-10.48 51.68-43.56 55.73 17.9-4.73 34.88-23.75 35.77-45.56 0.15-17.87-9.6-35.17-31.59-45.48z" fill="url(#paint1_radial_202_2506)"/>
  <path d="m50.41 59.36c13.46-10.17 29.56-12.43 42.34-9.15 18.73 6.15 31 22.93 31.51 39.7 0.15 11.28-3.82 24.91-10.44 34.47 8.13-13.4 9.13-31.24 0.98-44.12-11.06-17.29-31-29.48-57.23-25.1-2.49 0.7-4.83 2.25-7.16 4.2z" fill="url(#paint2_radial_202_2506)"/>
  <path d="m18.17 89.09c9.75-16.28 21.64-25.45 35.55-28.35 24.39-4.61 39.76 9.75 46.04 19.33 8.02 12 9.36 24.12 7.43 34.67-0.46-15-6.97-30.87-25.1-39.95-17.94-8.92-40.81-8.13-55.77 5.15-3.4 2.75-5.84 6.25-8.15 9.15z" fill="url(#paint3_radial_202_2506)"/>
  <path d="m7.37 127.9c-0.56-19.53 8.56-34.87 24.04-43.1 17.21-9.56 35.7-5.28 46.62 1.91 10.56 6.91 16.42 16.24 18.96 28.03-7.06-14.68-20.91-26.13-42.2-26.34-20.53 0.35-41.7 14.45-47.42 39.5z" fill="url(#paint4_radial_202_2506)"/>
  <path d="m16.94 172.1c-10.91-16.94-9.72-35.3-1.98-49.65 9.35-15.41 23.26-22.33 37.2-22.73 12.42-0.19 24.16 3.92 34.72 12.7-11.57-6.32-26.62-8.72-42.22-1.78-20.85 9.16-34.27 29.24-27.72 61.46z" fill="url(#paint5_radial_202_2506)"/>
  <path d="m50.12 203.4c-17.08-9.25-27.21-23.19-28.46-38.8-1.14-16.5 7.62-33.43 26.43-42.99 9.7-4.89 19.68-4.93 31.86-3.66-19.83 1.4-35.94 12.05-44.44 30.21-8.29 19.66-3.07 40.29 14.61 55.24z" fill="url(#paint6_radial_202_2506)"/>
  <path d="m78.87 211.2c-17.59-3.54-30.22-16.19-34.75-30.46-5.74-18.83 3.16-42.13 29.2-50.87 3.89-1.4 7.66-1.98 11.41-2.27-18.57 6.3-29.86 21.27-32.56 37.72-3.19 19.33 7.7 37.42 26.7 45.88z" fill="url(#paint7_radial_202_2506)"/>
  <path d="m102 178.2c-9.05 0-14.36-7-14.36-13.82 0-7.5 5.31-15.09 14.36-15.09 4.85 0 7.95 1.64 10.29 4.64l-2.83 2.85c-2.03-2.75-4.62-3.75-7.46-3.75-7.05 0-10.15 6.28-10.15 11.35 0 5.69 3.59 10.49 10.15 10.49 3.65 0 6.19-1.95 7.78-4.25l2.89 2.74c-2.33 3.28-5.72 4.84-10.67 4.84z" fill="url(#paint8_linear_202_2506)"/>
  <path d="m117 149.3h18.6v3.42h-14.87v9.77h12.99v3.12h-12.99v8.83h15.12v3.41h-18.85v-28.55z" fill="url(#paint8_linear_202_2506)"/>
  <path d="m158 177.8v-7.95h-8.84l-5.91 7.95h-4.07l6.56-8.98c-4.01-1.42-6.2-4.83-6.2-9.13 0-5.8 3.86-10.44 11.27-10.44h11.12v28.55h-3.93zm-7.04-25.13c-4.72 0-7.26 2.95-7.26 7.02 0 3.9 2.35 6.9 7.26 6.9h7.04v-13.92h-7.04z" fill="url(#paint8_linear_202_2506)"/>
  <path d="m175.5 163.9-9.15-14.59h4.57l7.36 11.44 7.99-11.44h3.64l-9.11 14.04 9.42 14.51h-4.47l-7.57-11.61-8.5 11.61h-3.81l9.63-13.96z" fill="url(#paint8_linear_202_2506)"/>
  <path d="m203.5 149.1h3.81l12.16 28.76h-4.17l-3.23-7h-13.64l-3.23 7h-4.27l12.57-28.76zm-2.79 18.59h10.22l-5.1-13.06-5.12 13.06z" fill="url(#paint8_linear_202_2506)"/>
  <path d="m229.1 152.7h-9.74v-3.42h22.37v3.42h-8.89v25.13h-3.74v-25.13z" fill="url(#paint8_linear_202_2506)"/>
  <path d="m93.91 200.1c-4.1 0-4.87-3.35-4.87-4.79 0-2.49 1.51-4.84 4.83-4.84 1.95 0 3.14 0.8 3.86 1.88l-1.06 1.01c-0.81-1.11-1.75-1.48-2.83-1.48-2.52 0-3.36 1.97-3.36 3.52 0 1.63 1.08 3.35 3.39 3.35 1.41 0 2.36-0.75 3-1.6l1.04 0.95c-1.14 1.4-2.39 2-4 2z" fill="url(#paint14_linear_202_2506)"/>
  <path d="m103.9 190.4c3.86 0 4.95 2.88 4.95 4.87 0 2.56-1.59 4.76-4.61 4.76-2.88 0-4.75-1.8-4.75-4.12h1.34c0.12 1.57 1.36 2.77 3.41 2.77s3.16-1.42 3.33-3.24h-5.88v-1.19h5.8c-0.32-1.45-1.39-2.55-3.59-2.55-1.17 0-2.16 0.45-3 1.13l-0.81-1.08c1.06-0.87 2.25-1.35 3.81-1.35z" fill="url(#paint14_linear_202_2506)"/>
  <path d="m117.8 199.8v-3.1h-3.38l-2.3 3.1h-1.66l2.49-3.37c-1.54-0.55-2.31-1.81-2.31-3.1 0-1.83 1.37-3.01 3.78-3.01h4.79v9.48h-1.41zm-3.28-8.2c-1.62 0-2.45 0.77-2.45 2 0 1.18 0.89 2.1 2.45 2.1h3.28v-4.1h-3.28z" fill="url(#paint14_linear_202_2506)"/>
  <path d="m124.8 195.1-3.79-4.73h1.78l2.96 3.88 3.03-3.88h1.54l-3.72 4.68 3.98 4.8h-1.8l-3.08-3.9-3.12 3.9h-1.58l3.8-4.75z" fill="url(#paint14_linear_202_2506)"/>
  <path d="m135.6 190.3c3.05 0 4.4 1.28 4.4 3.98v5.5h-1.39v-1.8c-0.77 1.24-2.01 2-3.81 2-2.33 0-3.54-1.4-3.54-3 0-1.8 1.51-2.85 3.81-2.85 1.11 0 2.27 0.2 3.54 0.65v-0.45c0-1.95-1.14-2.75-3.14-2.75-1.19 0-2.16 0.45-2.9 1.15l-0.79-1.1c1.09-0.9 2.3-1.33 3.82-1.33zm-0.48 8.43c1.9 0 3.16-1.25 3.49-3.05-1.09-0.45-2.28-0.7-3.31-0.7-1.64 0-2.63 0.7-2.63 1.85 0 1.05 0.84 1.9 2.45 1.9z" fill="url(#paint14_linear_202_2506)"/>
  <path d="m145.7 191.6h-3.92v-1.28h8.6v1.28h-3.58v8.2h-1.4v-8.2h0.3z" fill="url(#paint14_linear_202_2506)"/>
  <path d="m159.3 191.6h-3.91v-1.28h8.6v1.28h-3.58v8.2h-1.41v-8.2h0.3z" fill="url(#paint14_linear_202_2506)"/>
  <path d="m165.2 202.1 0.56-1.2c0.52 0.4 1.12 0.6 1.73 0.6 0.84 0 1.37-0.35 1.98-1.75l-4.22-9.38h1.61l3.41 7.73 3.49-7.73h1.54l-4.52 9.68c-0.89 2.05-1.93 2.7-3.39 2.7-0.79 0-1.58-0.25-2.19-0.65z" fill="url(#paint14_linear_202_2506)"/>
  <path d="m177.3 190.3h1.36v2.08c0.82-1.53 2.11-2.28 3.87-2.28 2.93 0 4.47 2.28 4.47 4.88 0 2.55-1.59 4.9-4.52 4.9-1.66 0-3-0.85-3.77-2.3v5.7h-1.41v-12.98zm4.9 8.28c2.22 0 3.36-1.75 3.36-3.75 0-2.1-1.24-3.48-3.31-3.48-2.2 0-3.56 1.63-3.56 3.68 0 1.95 1.44 3.55 3.51 3.55z" fill="url(#paint14_linear_202_2506)"/>
  <path d="m189.3 194.6h4.65v1.35h-4.65v-1.35z" fill="url(#paint14_linear_202_2506)"/>
  <path d="m197.3 190.3h1.41v4.88l4.7-4.88h1.81l-3.86 4.08 4.31 5.4h-1.76l-3.61-4.5-1.59 1.55v2.95h-1.41v-9.48z" fill="url(#paint14_linear_202_2506)"/>
  <path d="m210.8 190.3c3.04 0 4.39 1.28 4.39 3.98v5.5h-1.39v-1.8c-0.77 1.24-2.01 2-3.81 2-2.33 0-3.54-1.4-3.54-3 0-1.8 1.51-2.85 3.81-2.85 1.11 0 2.27 0.2 3.54 0.65v-0.45c0-1.95-1.14-2.75-3.14-2.75-1.19 0-2.16 0.45-2.9 1.15l-0.79-1.1c1.09-0.9 2.3-1.33 3.83-1.33zm-0.49 8.43c1.9 0 3.16-1.25 3.49-3.05-1.09-0.45-2.28-0.7-3.31-0.7-1.64 0-2.63 0.7-2.63 1.85 0 1.05 0.84 1.9 2.45 1.9z" fill="url(#paint14_linear_202_2506)"/>
  <path d="m224.2 186.1h1.41v4.2c0.36-0.1 0.85-0.2 1.41-0.2 3.22 0 4.81 2.28 4.81 4.88 0 2.55-1.59 4.9-4.76 4.9-0.56 0-1.04-0.1-1.46-0.3v3.58h-1.41v-3.58c-0.41 0.15-0.92 0.3-1.53 0.3-3.1 0-4.71-2.3-4.71-4.9 0-2.55 1.59-4.88 4.76-4.88 0.56 0 1.07 0.1 1.48 0.25v-4.25zm-1.38 12.48c0.51 0 0.97-0.1 1.38-0.3v-6.7c-0.41-0.15-0.87-0.23-1.43-0.23-2.38 0-3.37 1.73-3.37 3.63 0 1.95 1.14 3.6 3.42 3.6zm4.05 0c2.39 0 3.53-1.75 3.53-3.65 0-1.95-1.19-3.58-3.53-3.58-0.51 0-0.91 0.08-1.26 0.18v6.8c0.32 0.15 0.8 0.25 1.26 0.25z" fill="url(#paint14_linear_202_2506)"/>
  <path d="m238.8 190.1c3.46 0 4.4 2.98 3.99 5.23h-7.12c0.13 1.95 1.72 3.1 3.87 3.15 1.19 0 2.18-0.45 3.02-1.15l0.79 1c-1.07 0.95-2.38 1.5-3.92 1.5-3.1 0-5.05-2-5.05-4.8 0-2.68 2-4.93 4.42-4.93zm0.07 1.3c-1.9 0-3.04 1.4-3.21 2.98h6.11c0.1-1.65-1.04-2.98-2.9-2.98z" fill="url(#paint14_linear_202_2506)"/>
  <defs>
    <radialGradient id="paint0_radial_202_2506" cx="0" cy="0" r="1" gradientTransform="translate(113.3 79.01) scale(42.82 42.72)" gradientUnits="userSpaceOnUse">
      <stop stop-color="#F69322" offset="0"/>
      <stop stop-color="#E5590A" offset="1"/>
    </radialGradient>
    <radialGradient id="paint1_radial_202_2506" cx="0" cy="0" r="1" gradientTransform="translate(152.5 80.59) scale(37.86 37.77)" gradientUnits="userSpaceOnUse">
      <stop stop-color="#F69322" offset="0"/>
      <stop stop-color="#E5590A" offset="1"/>
    </radialGradient>
    <radialGradient id="paint2_radial_202_2506" cx="0" cy="0" r="1" gradientTransform="translate(86.93 77.64) scale(38 37.91)" gradientUnits="userSpaceOnUse">
      <stop stop-color="#F69322" offset="0"/>
      <stop stop-color="#E5590A" offset="1"/>
    </radialGradient>
    <radialGradient id="paint3_radial_202_2506" cx="0" cy="0" r="1" gradientTransform="translate(60.15 83.99) scale(37.82 37.73)" gradientUnits="userSpaceOnUse">
      <stop stop-color="#F69322" offset="0"/>
      <stop stop-color="#E5590A" offset="1"/>
    </radialGradient>
    <radialGradient id="paint4_radial_202_2506" cx="0" cy="0" r="1" gradientTransform="translate(45.18 102.9) scale(37.76 37.67)" gradientUnits="userSpaceOnUse">
      <stop stop-color="#F69322" offset="0"/>
      <stop stop-color="#E5590A" offset="1"/>
    </radialGradient>
    <radialGradient id="paint5_radial_202_2506" cx="0" cy="0" r="1" gradientTransform="translate(47.04 137) scale(37.77 37.68)" gradientUnits="userSpaceOnUse">
      <stop stop-color="#F69322" offset="0"/>
      <stop stop-color="#E5590A" offset="1"/>
    </radialGradient>
    <radialGradient id="paint6_radial_202_2506" cx="0" cy="0" r="1" gradientTransform="translate(59.02 162.6) scale(37.79 37.7)" gradientUnits="userSpaceOnUse">
      <stop stop-color="#F69322" offset="0"/>
      <stop stop-color="#E5590A" offset="1"/>
    </radialGradient>
    <linearGradient id="paint7_radial_202_2506" x1="64.37" x2="63.06" y1="143" y2="208.1" gradientUnits="userSpaceOnUse">
      <stop stop-color="#F69322" offset="0"/>
      <stop stop-color="#E5590A" offset="1"/>
    </linearGradient>
    <linearGradient id="paint8_linear_202_2506" x1="165.4" x2="165.4" y1="149.3" y2="178.2" gradientUnits="userSpaceOnUse">
      <stop stop-color="#F69322" offset="0"/>
      <stop stop-color="#D86E00" offset="1"/>
    </linearGradient>
    <linearGradient id="paint14_linear_202_2506" x1="165.9" x2="165.9" y1="186.1" y2="202.7" gradientUnits="userSpaceOnUse">
      <stop stop-color="#D86E00" offset="0"/>
      <stop stop-color="#C66A00" offset="1"/>
    </linearGradient>
  </defs>
</svg>