<svg xmlns="http://www.w3.org/2000/svg" width="250" height="250" fill="none" viewBox="0 0 250 250">
  <path d="m96.92 39.9c23.05-1.82 32.52 6.94 41.15 17.32 16.1 20.05 12.74 48.5-12.05 65.76-2.6 1.8-4.9 3.44-7.9 5.02 16.29-12.74 23.69-30.67 20.44-48.14-3.78-19.94-19.23-35.93-41.64-39.96z" clip-rule="evenodd" fill="url(#paint0_linear_2_1167)" fill-rule="evenodd"/>
  <path d="m130.4 41.79c18.99 3.17 33.87 15.79 39.21 33.4 7.62 25.16-10.93 51.68-42.44 56.26 18.96-6.14 33.76-25.07 34.84-43.34 1.25-21.88-11.57-38.23-31.61-46.32z" clip-rule="evenodd" fill="url(#paint1_linear_2_1167)" fill-rule="evenodd"/>
  <path d="m50.02 59.49c10.06-7.65 18.95-10.83 32.15-10.4 22.74 0.79 40.53 21.14 40.67 42.66 0.07 11.03-4.99 24.18-10.35 32.96 5.5-10.65 8.57-27.52 1.32-42.01-9.85-20.05-33.13-32.23-57.8-26.79-1.89 0.46-3.85 1.98-5.99 3.58z" clip-rule="evenodd" fill="url(#paint2_linear_2_1167)" fill-rule="evenodd"/>
  <path d="m17.96 89.47c9.26-17.4 22.93-28.29 41.81-29.01 28.69-1.12 48.82 23.31 46.26 53.46-1.97-23.61-19-42.76-44.75-45.11-16.79-1.18-31.23 4.47-43.32 20.66z" clip-rule="evenodd" fill="url(#paint3_linear_2_1167)" fill-rule="evenodd"/>
  <path d="m6.66 127.4c0.35-24.29 15.26-45.09 38.42-47.42 22.53-2.28 42.73 11.24 50.28 34.75l-0.17 0.12c-8.64-17.83-26.08-27.25-44.96-25.77-20.46 1.6-38.61 15.42-43.57 38.32z" clip-rule="evenodd" fill="url(#paint4_linear_2_1167)" fill-rule="evenodd"/>
  <path d="m16.36 171.9c-11.63-19.09-10.38-42.7 4.82-58.4 14.23-14.21 33.84-16.21 50.94-8.86 5.86 2.69 9.71 4.81 13.95 8.9-11.42-7.17-23.3-8.27-35.66-4.3-25.45 7.95-40.4 32.07-34.05 62.66z" clip-rule="evenodd" fill="url(#paint5_linear_2_1167)" fill-rule="evenodd"/>
  <path d="m48.46 202.8c-16.29-9.16-28.44-25.59-27.25-44.63 1.57-20.05 18.98-39.01 42.1-40.71 5.73-0.32 10.58 0.36 16.08 1.2-21.2 0.46-41.33 13.8-47.74 37.82-5.44 20.48 5.25 38.23 16.81 46.32z" clip-rule="evenodd" fill="url(#paint6_linear_2_1167)" fill-rule="evenodd"/>
  <path d="m76.46 210.7c-16.93-4.55-32.38-18.1-33.98-38.51-2.15-22.39 16-41.37 41.35-44.48-20.92 8.02-32.45 23.58-32.65 43.02-0.11 17.02 9.64 32.59 25.28 39.97z" clip-rule="evenodd" fill="url(#paint7_linear_2_1167)" fill-rule="evenodd"/>
  <path d="m108.2 171.2 0.66 0.39c-1.96 4.87-5.4 6.58-10.63 6.58-8.53 0-12.31-7.07-12.31-12.69 0-7.07 4.88-14.95 12.74-14.95 6.04 0 9.47 2.74 9.68 8.72h-1.23c-0.7-4.87-3.65-6.89-7.84-6.89-7.32 0-9.21 6.99-9.21 13.05 0 6.89 3.78 11.43 8.78 11.43 5.14 0 7.64-2.23 9.36-5.64z" clip-rule="evenodd" fill="url(#paint8_linear_2_1167)" fill-rule="evenodd" stroke="#C66300" stroke-miterlimit="22.93" stroke-width=".5669"/>
  <path d="m112.2 151.1h15.28c2.22 0 2.95 1.48 2.95 3.98v2.09h-0.94c0-3.41-1.89-4.52-4.85-4.52h-6.75v11.24h10.28v1.41h-10.28v10.65h6.41c4.11 0 5.68-0.97 6.62-3.96l0.8 0.21-1.57 4.41c-0.45 1.18-1.35 0.97-2.22 0.97h-13.13v-21.8c0-3.09-0.45-3.79-2.6-3.79v-0.89z" clip-rule="evenodd" fill="url(#paint9_linear_2_1167)" fill-rule="evenodd" stroke="#C66300" stroke-miterlimit="22.93" stroke-width=".5669"/>
  <path d="m154.5 151v26.62h-4.51v-10.55h-3.85l-3.85 6.89c-2.42 4.33-5.18 4.37-8.54 3.77v-1.01c2.49 0 3.7-1.15 5.2-3.99l3.2-5.76c-4.11-0.52-6.18-4.14-6.18-7.26 0-4.27 3.29-8.71 10.24-8.71h8.29zm-4.51 1.59h-3.13c-5.02 0-6.84 3.68-6.84 6.83 0 4.2 2.82 6.22 6.39 6.22h3.58v-13.05z" clip-rule="evenodd" fill="url(#paint10_linear_2_1167)" fill-rule="evenodd" stroke="#C66300" stroke-miterlimit="22.93" stroke-width=".5669"/>
  <path d="m157.9 150.9h2.11c3.65 0 5.15 0.86 7.71 4.89l3.5 5.54 8.89-10.43h1.46l-9.16 12.48 6.21 9.53c1.79 2.84 2.53 3.5 5.09 4.16v0.7c-3.19 0.32-5.65 0.07-7.93-3.3l-5.61-8.57-8.68 11.31h-1.89l9.3-12.02-5.92-9.61c-1.35-2.32-2.63-3.58-5.08-3.89v-0.79z" clip-rule="evenodd" fill="url(#paint11_linear_2_1167)" fill-rule="evenodd" stroke="#C66300" stroke-miterlimit="22.93" stroke-width=".5669"/>
  <path d="m196.2 151.1h1.01l9.18 21.94c1 2.56 1.7 3.57 3.2 3.71l-0.28 0.83h-1.08c-2.32 0-4.14-1.6-5.45-4.99l-1.79-3.09h-11.11l-3.19 7.63h-1.57l11.08-26.03zm-1.04 5.1-5.21 12.43h10.42l-5.21-12.43z" clip-rule="evenodd" fill="url(#paint12_linear_2_1167)" fill-rule="evenodd" stroke="#C66300" stroke-miterlimit="22.93" stroke-width=".5669"/>
  <path d="m208.2 157.6 0.35-3.58c0.21-1.95 0.97-2.98 3.19-2.98h17.98v1.55h-8.96v25.04h-3.71v-25.04h-4.34c-2.49 0-3.7 1.15-3.95 3.96l-0.56 1.05z" clip-rule="evenodd" fill="url(#paint13_linear_2_1167)" fill-rule="evenodd" stroke="#C66300" stroke-miterlimit="22.93" stroke-width=".5669"/>
  <path d="m96.71 202.8c2.37 0 3.15-1.38 3.27-1.99h-1.19c-0.43 0.88-1.28 1.12-2.21 1.12-1.87 0-3.14-1.37-3.14-3 0-1.74 1.28-2.87 2.97-2.87 1.3 0 2.06 0.73 2.38 1.41h1.12c-0.28-1.02-1.44-2.29-3.5-2.29-2.39 0-4.02 1.68-4.02 3.75 0 2.04 1.53 3.87 4.32 3.87z" clip-rule="evenodd" fill="#C66300" fill-rule="evenodd"/>
  <path d="m106.6 195.1c-1.94 0-2.93 0.89-3.27 2.02h1.05c0.47-0.85 1.25-1.17 2.27-1.17 1.61 0 2.78 1.19 2.91 2.73h-5.9v0.59c0 1.97 1.45 3.42 3.5 3.42 2.2 0 3.45-1.54 3.45-3.75 0-2.2-1.5-3.84-4.01-3.84zm0.46 6.75c-1.57 0-2.59-1.13-2.59-2.42h5.09c-0.09 1.41-1.03 2.42-2.5 2.42z" clip-rule="evenodd" fill="#C66300" fill-rule="evenodd"/>
  <path d="m120.6 195.4h-3.57c-1.81 0-2.89 0.99-2.89 2.55 0 1.3 0.84 2.25 1.92 2.52l-2.11 2.08h1.33l1.9-2h2.4v2h1.02v-7.15zm-1.02 4.65h-2.42c-1.2 0-1.98-0.85-1.98-2.05 0-1.19 0.76-1.95 2.1-1.95h2.3v4z" clip-rule="evenodd" fill="#C66300" fill-rule="evenodd"/>
  <path d="m128.5 198.8 2.99-3.47h-1.2l-2.43 3-2.43-3h-1.27l2.99 3.59-3.09 3.56h1.27l2.48-3.09 2.51 3.09h1.26l-3.08-3.68z" clip-rule="evenodd" fill="#C66300" fill-rule="evenodd"/>
  <path d="m137.8 195.1c-1.09 0-2.21 0.33-2.97 0.78l0.36 0.75c0.6-0.33 1.49-0.7 2.44-0.7 1.8 0 2.32 1.12 2.32 2.46v0.42c-0.82-0.33-1.87-0.58-2.82-0.58-1.69 0-2.94 0.95-2.94 2.35 0 1.39 1.13 2.11 2.64 2.11 1.1 0 2.27-0.57 3.12-1.26v1.05h0.94v-4.1c0-1.95-1.04-3.28-3.09-3.28zm-0.7 6.78c-1.12 0-1.9-0.57-1.9-1.45 0-0.93 0.98-1.53 2.25-1.53 0.94 0 1.88 0.3 2.5 0.58v1.14c-0.86 0.81-1.92 1.26-2.85 1.26z" clip-rule="evenodd" fill="#C66300" fill-rule="evenodd"/>
  <path d="m151.2 195.4h-7.38v0.85h3.21v6.3h0.99v-6.3h3.18v-0.85z" clip-rule="evenodd" fill="#C66300" fill-rule="evenodd"/>
  <path d="m167.3 195.4h-7.38v0.85h3.21v6.3h0.99v-6.3h3.18v-0.85z" clip-rule="evenodd" fill="#C66300" fill-rule="evenodd"/>
  <path d="m175.7 195.4-2.72 6.15-2.95-6.15h-1.13l3.47 7.24-0.22 0.51c-0.65 1.4-1.15 1.64-1.92 1.64-0.46 0-0.92-0.14-1.36-0.34l-0.32 0.81c0.6 0.3 1.25 0.47 1.88 0.47 1.22 0 2.08-0.62 2.88-2.48l3.47-7.85h-1.08z" clip-rule="evenodd" fill="#C66300" fill-rule="evenodd"/>
  <path d="m185 195.1c-1.44 0-2.49 0.7-3.18 1.64v-1.41h-0.97v10.16h0.99v-4.34c0.67 0.89 1.69 1.54 3.11 1.54 2.25 0 3.76-1.77 3.76-3.84 0-2.04-1.49-3.75-3.71-3.75zm-0.15 6.7c-1.49 0-2.61-1.22-3.01-2.42v-1.29c0.45-1.23 1.57-2.14 2.96-2.14 1.78 0 2.92 1.41 2.92 2.91 0 1.57-1.22 2.94-2.87 2.94z" clip-rule="evenodd" fill="#C66300" fill-rule="evenodd"/>
  <path d="m195.6 198.6h-3.26v0.89h3.26v-0.89z" fill="#C66300"/>
  <path d="m203.8 199.1 2.76-3.75h-1.16l-2.46 3.48h-1.81v-3.48h-0.99v7.15h0.99v-2.97h1.83l2.69 2.97h1.31l-3.16-3.4z" clip-rule="evenodd" fill="#C66300" fill-rule="evenodd"/>
  <path d="m213.8 195.1c-1.09 0-2.21 0.33-2.97 0.78l0.36 0.75c0.6-0.33 1.49-0.7 2.44-0.7 1.8 0 2.32 1.12 2.32 2.46v0.42c-0.82-0.33-1.87-0.58-2.82-0.58-1.69 0-2.94 0.95-2.94 2.35 0 1.39 1.13 2.11 2.64 2.11 1.1 0 2.27-0.57 3.12-1.26v1.05h0.94v-4.1c0-1.95-1.04-3.28-3.09-3.28zm-0.7 6.78c-1.12 0-1.9-0.57-1.9-1.45 0-0.93 0.98-1.53 2.25-1.53 0.94 0 1.88 0.3 2.5 0.58v1.14c-0.86 0.81-1.92 1.26-2.85 1.26z" clip-rule="evenodd" fill="#C66300" fill-rule="evenodd"/>
  <path d="m227.4 195.1v-2.92h-0.99v2.92c-2.87 0-4.56 1.68-4.56 3.78 0 2.07 1.69 3.75 4.56 3.75v2.55h0.99v-2.55c2.86 0 4.55-1.68 4.55-3.77 0-2.08-1.69-3.76-4.55-3.76zm-0.99 6.63c-2.25 0-3.55-1.28-3.55-2.9 0-1.63 1.3-2.9 3.55-2.9v5.8zm0.99 0v-5.8c2.24 0 3.55 1.27 3.55 2.9 0 1.62-1.31 2.9-3.55 2.9z" clip-rule="evenodd" fill="#C66300" fill-rule="evenodd"/>
  <path d="m239.5 195.1c-2.39 0-3.78 1.78-3.78 3.71 0 2.09 1.56 3.88 4.15 3.88 1.21 0 2.18-0.41 2.96-1.11l-0.46-0.72c-0.82 0.75-1.62 0.99-2.52 0.99-1.82 0-2.98-1.3-3.08-2.84h6.53c0-2.23-1.42-3.91-3.8-3.91zm0.02 0.85c1.56 0 2.58 1.08 2.78 2.43h-5.46c0.22-1.38 1.27-2.43 2.68-2.43z" clip-rule="evenodd" fill="#C66300" fill-rule="evenodd"/>
  <defs>
    <linearGradient id="paint0_linear_2_1167" x1="96.92" x2="170.3" y1="83.84" y2="83.84" gradientUnits="userSpaceOnUse">
      <stop stop-color="#F26500" offset="0"/>
      <stop stop-color="#E88000" offset="1"/>
    </linearGradient>
    <linearGradient id="paint1_linear_2_1167" x1="130.4" x2="170.9" y1="86.5" y2="86.5" gradientUnits="userSpaceOnUse">
      <stop stop-color="#F26500" offset="0"/>
      <stop stop-color="#E88000" offset="1"/>
    </linearGradient>
    <linearGradient id="paint2_linear_2_1167" x1="50.02" x2="122.9" y1="86.95" y2="86.95" gradientUnits="userSpaceOnUse">
      <stop stop-color="#F26500" offset="0"/>
      <stop stop-color="#E88000" offset="1"/>
    </linearGradient>
    <linearGradient id="paint3_linear_2_1167" x1="17.96" x2="106.4" y1="84.97" y2="84.97" gradientUnits="userSpaceOnUse">
      <stop stop-color="#F26500" offset="0"/>
      <stop stop-color="#E88000" offset="1"/>
    </linearGradient>
    <linearGradient id="paint4_linear_2_1167" x1="6.662" x2="95.36" y1="103.6" y2="103.6" gradientUnits="userSpaceOnUse">
      <stop stop-color="#F26500" offset="0"/>
      <stop stop-color="#E88000" offset="1"/>
    </linearGradient>
    <linearGradient id="paint5_linear_2_1167" x1="9.136" x2="79.39" y1="144.5" y2="144.5" gradientUnits="userSpaceOnUse">
      <stop stop-color="#F26500" offset="0"/>
      <stop stop-color="#E88000" offset="1"/>
    </linearGradient>
    <linearGradient id="paint6_linear_2_1167" x1="20.93" x2="83.83" y1="160.1" y2="160.1" gradientUnits="userSpaceOnUse">
      <stop stop-color="#F26500" offset="0"/>
      <stop stop-color="#E88000" offset="1"/>
    </linearGradient>
    <linearGradient id="paint7_linear_2_1167" x1="42.2" x2="76.46" y1="169.2" y2="169.2" gradientUnits="userSpaceOnUse">
      <stop stop-color="#F26500" offset="0"/>
      <stop stop-color="#E88000" offset="1"/>
    </linearGradient>
    <linearGradient id="paint8_linear_2_1167" x1="85.93" x2="108.9" y1="164.4" y2="164.4" gradientUnits="userSpaceOnUse">
      <stop stop-color="#F26500" offset="0"/>
      <stop stop-color="#E88000" offset="1"/>
    </linearGradient>
    <linearGradient id="paint9_linear_2_1167" x1="112.2" x2="131.7" y1="164.4" y2="164.4" gradientUnits="userSpaceOnUse">
      <stop stop-color="#F26500" offset="0"/>
      <stop stop-color="#E88000" offset="1"/>
    </linearGradient>
    <linearGradient id="paint10_linear_2_1167" x1="133.7" x2="154.5" y1="164.6" y2="164.6" gradientUnits="userSpaceOnUse">
      <stop stop-color="#F26500" offset="0"/>
      <stop stop-color="#E88000" offset="1"/>
    </linearGradient>
    <linearGradient id="paint11_linear_2_1167" x1="157.9" x2="183.7" y1="164.4" y2="164.4" gradientUnits="userSpaceOnUse">
      <stop stop-color="#F26500" offset="0"/>
      <stop stop-color="#E88000" offset="1"/>
    </linearGradient>
    <linearGradient id="paint12_linear_2_1167" x1="185.1" x2="209.6" y1="164.4" y2="164.4" gradientUnits="userSpaceOnUse">
      <stop stop-color="#F26500" offset="0"/>
      <stop stop-color="#E88000" offset="1"/>
    </linearGradient>
    <linearGradient id="paint13_linear_2_1167" x1="208.2" x2="229.7" y1="164.4" y2="164.4" gradientUnits="userSpaceOnUse">
      <stop stop-color="#F26500" offset="0"/>
      <stop stop-color="#E88000" offset="1"/>
    </linearGradient>
  </defs>
</svg>